<?xml version="1.0" encoding="utf-8"?>
<!-- Generator: Adobe Illustrator 25.2.1, SVG Export Plug-In . SVG Version: 6.00 Build 0)  -->
<svg version="1.1"
	 id="svg2390" xmlns:cc="http://creativecommons.org/ns#" xmlns:dc="http://purl.org/dc/elements/1.1/" xmlns:rdf="http://www.w3.org/1999/02/22-rdf-syntax-ns#" xmlns:svg="http://www.w3.org/2000/svg"
	 xmlns="http://www.w3.org/2000/svg" xmlns:xlink="http://www.w3.org/1999/xlink" x="0px" y="0px" viewBox="0 0 500 500"
	 style="enable-background:new 0 0 500 500;" xml:space="preserve">
<style type="text/css">
	.st0{fill:#283593;}
</style>
<g id="capa1">
	<path id="path3220" class="st0" d="M346.9,186.2c1.6,5.7,2.5,12,2.5,19.2c0,12.7-2.8,25-7.8,36.3c7.3-5.2,13.9-10.6,20.3-15.5
		c22.5-17.5,43.8-23.6,60.3-24.6c8.8-0.6,23.3-7.4,23.3-15.4H346.9L346.9,186.2z M343.7,205.5c0-44.8-41-57-77.5-62.8
		c-36.8-5.9-79.3-19-79.3-58.2c0-19.2,12-38.4,32.7-38.4c30.4,0,35.7,23,35.8,26.3c0.1,3.3-8.9,5.6-10,12.2c-1.4,7.8,2,15.7,7,22
		c4.4,5.7,10.8,17.1,17.1,16.1c6.8-1.1,9.2-12.7,11.1-20.3c1.9-7.6,5.2-14.1,2-21.1c-3.9-8.8-7.9-4.4-10.9-10.8
		c-1.7-3.6-8.5-40.4-49.1-40.4c-28.4,0-54.2,23.4-56.7,50c-3.6,38.1,11.4,52.4,43.1,67.4c49.3,23.3,100.5,22.3,100.5,54.9
		c0,31.9-10.9,48.9-29.6,61.3c-3.2,2.1-9.4,5-15.4,7v22.4c1.2-0.2,2.5-0.4,3.8-0.6C310.3,285.5,343.7,248,343.7,205.5L343.7,205.5z
		 M295.2,186.2H54.5c0,8.1,14.5,14.9,23.3,15.4c16.5,1,37.7,7.1,60.3,24.6c23,17.9,48.9,41.3,103.2,43.6v69
		c3.1,0.6,6.7,0.9,10.5,0.9c1.6,0,4.1-0.1,7-0.4v-72.8c29.1-6.4,45-31.2,45-64.1C303.8,195.7,301,190.6,295.2,186.2L295.2,186.2z
		 M241.3,391.6c4.9,3,10.9,4.3,17.5,5.2v-26.9c-5.9,0.4-11.7,0.3-17.5-0.3V391.6L241.3,391.6z M299.1,413.4
		c-9.4-7.1-21.5-8.7-43.2-11.4c-25.6-3.1-32.4-19.3-33.1-36.3c-6.6-2.2-12.8-5.3-18.1-9.3c-1.2,5.8-1.8,11.8-1.8,18
		c0,25.6,27.6,36.4,47.1,39.2c20.3,2.9,39.2,3.7,41.9,4.8c2.7,1.1,4.3,2.4,5.5,3.7c1.1,1.3,4.2,3,6.1,1.8
		C305.3,422.6,303.8,416.9,299.1,413.4L299.1,413.4z M230,334.9c1.6-1.7,3.5-3.1,5.5-4.4v-15.6c-4.9,2.7-9.1,5.8-12.7,9.2
		C222.8,328.2,225.3,332,230,334.9L230,334.9z M285.7,327.6c0,12.2-16,18-33.9,18s-34.7-7.1-34.7-21.5c0-17.8,7.3-24.2,18.4-27v-25
		c-24.4,1.9-44.5,24.3-44.5,43.4c0,13.9,2.5,35.8,41,46.8c40.5,11.6,87.1-13.9,87.1-39.5c0-12.4-6.4-18.4-14.7-21
		c-6.9-2.2-15.1-5.2-40,1.9v15.8c3.9-1.1,7.4-1.8,10.8-1.8C282.4,317.7,285.7,320,285.7,327.6z M153.3,469.9h193.5
		c0-3.2-10.2-7.7-19.1-8.5c-8.9-0.8-20.8-1.2-23.4-3.5c-3.7-3.2-9.5-5.4-17.2-7.2c-7.9-1.9-28.2-3.5-28.2-14.7v-15.5
		c-3.2-0.3-6.4-0.7-9.6-1.1c-2.4-0.4-5.1-0.8-7.9-1.5v18.1c0,11.1-20.4,12.8-28.2,14.7c-7.7,1.9-13.6,4-17.2,7.2
		c-2.7,2.3-14.6,2.8-23.4,3.5S153.3,466.7,153.3,469.9L153.3,469.9z"/>
</g>
</svg>
