<?xml version="1.0" encoding="utf-8"?>
<!-- Generator: Adobe Illustrator 24.3.0, SVG Export Plug-In . SVG Version: 6.00 Build 0)  -->
<svg version="1.1" id="Camada_1" xmlns="http://www.w3.org/2000/svg" xmlns:xlink="http://www.w3.org/1999/xlink" x="0px" y="0px"
	 viewBox="0 0 418 94" style="enable-background:new 0 0 418 94;" xml:space="preserve">
<style type="text/css">
	.st0{fill:#FFFFFF;}
	.st1{fill:url(#SVGID_1_);}
	.st2{fill:#FFFFFF;}
</style>
<g>
	<path class="st0" d="M265.1,17.9c0-5.5,4.4-9.9,9.9-9.9h3.6c3.2,0,4.7,0.9,6.6,3.5c4.4,6.9,8.5,13.3,12,18.9c2.2,3.4,4,6.1,5.2,8.1
		c2,3.3,4.1,6.7,6.3,10c0.8,1.3,1.3,1.9,1.4,2.2h0.5c0.6,0,0.7-0.1,0.7-0.3V17.9c0-4.3,2.5-7.5,6.3-9.2c1.3-0.5,2.4-0.7,3.6-0.7h7.4
		c0.8,0,1.5,0.2,1.9,0.8c0.6,0.6,0.8,1.3,0.8,2.2v73.2c0,0.8-0.2,1.5-0.8,2c-0.5,0.6-1.1,0.9-1.9,0.9h-12.8c-1.8,0-3.1-0.7-3.9-2.2
		c-4.5-6.9-8.6-13.2-12.3-18.7c-3.1-4.4-6.1-9-8.9-13.6c-1.1-1.7-2-3.1-2.8-4.3c-0.8-1.1-1.3-1.8-1.4-2c-0.3-0.1-0.6-0.1-0.8-0.1
		l-0.5,38.1c0,0.9-0.2,1.6-0.8,2c-0.6,0.6-1.3,0.8-2.2,0.8h-14.3c-1.4,0-2.8-1.5-2.8-2.8L265.1,17.9L265.1,17.9z"/>
	<path class="st0" d="M176.2,83.8l-14.3-25.9c-0.2-0.3-0.3-0.7-0.2-1.3c0-0.6,0.3-1,0.9-1.4c8-4.5,12.2-11.9,12.2-21.1
		c0-18.7-14.3-25.9-31.8-25.9h-24.1c-5.6,0-9.9,4.2-9.9,9.8v66.5c0,1.4,1.6,2.7,2.8,2.7h15.6c0.8,0,1.5-0.2,2-0.8
		c0.6-0.5,0.8-1.1,0.8-1.9V65.9c0-0.2,0-0.4,0-0.6v-5.4h8.8c1.4,0,2.4,0.6,3.1,1.8l11.6,22.7c0.9,1.9,2.4,3,4.5,3h16
		c0.6,0,1.1-0.2,1.7-0.7c0.5-0.5,0.7-1,0.7-1.6C176.5,84.7,176.4,84.3,176.2,83.8z M142.8,43.1h-9.3c-1,0-1.8-0.3-2.4-1
		c-0.5-0.5-0.8-1-0.9-1.6v-16h12.7c3,0,5.3,0.8,7.3,2.4c1.8,1.7,2.7,4.1,2.7,7.1C152.8,40.2,148.7,43.1,142.8,43.1z"/>
	<path class="st0" d="M258.1,84.1l-26.3-72.4c-0.8-2.2-2.4-3.3-4.5-3.3h-17.6c-2.2,0-3.8,1.1-4.5,3.3l-26.3,72.5
		c-0.1,0.1-0.1,0.5-0.1,1c0,0.6,0.2,1.1,0.7,1.7c0.6,0.5,1.1,0.7,1.7,0.7h14.7c1.9,0,3.2-0.8,3.9-2.5l1.1-3l0,0l0,0l0.5-1.3
		c0.2-0.5,0.3-1,0.4-1.4l1.7-5.3c9.5-0.1,19.3-1.6,28.3-5l5.9,16c0.7,1.7,1.9,2.5,3.9,2.5h14.7c1.3,0,2.4-1.1,2.4-2.4
		C258.3,84.6,258.3,84.3,258.1,84.1z M208.3,57.8l1.5-4.7l0,0l8.6-24.8l8.7,25C222,56.1,214.1,57.4,208.3,57.8z"/>
	<path class="st0" d="M405.8,40.9h-16.8c-3.9,0-8,2.4-9.1,6.2c-0.5,1.3-0.7,2.4-0.7,3.5v1.9c0,0.8,0.2,1.5,0.8,2
		c0.5,0.6,1.1,0.9,2,0.9h12.9c-0.8,7.8-3.3,11.3-4.3,12.3c-0.5,0.4-1,0.8-1.5,1.1c-0.6,0.5-1.3,0.8-2,1c-1.5,0.7-5.7,0.8-7.4,0.8
		c-10.1,0-15.3-3.9-15.6-14.3c-0.1-1-0.1-2.4-0.1-4.1V40.9c0-1.6,0-3,0.1-4c0.3-9.1,4.9-13.6,13.6-13.6c3.5,0,6.3,0.8,8.4,2.3
		c1,0.8,1.8,1.7,2.6,2.5c0.7,0.9,1.3,1.9,1.7,3c0.3,0.5,0.7,0.8,1.3,1.1c0.3,0.3,0.9,0.5,1.7,0.5h17.5c1.4,0,2.5-1.1,2.5-2.5
		c-0.1-3.9-1.6-7.6-4.4-11.2c-7.3-9.2-20-12.5-31.2-12.5c-18.7,0-35.1,9-35.5,30c-0.1,1-0.1,2.5-0.1,4.2v12.3c0,1.7,0,3.2,0.1,4.2
		c0.5,20.8,15.3,30.8,35.5,30.8c19.1,0,36-9.4,36-30.9V49C413.7,43.6,411.2,40.9,405.8,40.9z"/>
</g>
<g>
	
		<linearGradient id="SVGID_1_" gradientUnits="userSpaceOnUse" x1="7.45" y1="42.77" x2="86.45" y2="42.77" gradientTransform="matrix(1 0 0 -1 0 90.7244)">
		<stop  offset="0" style="stop-color:#FF3A3D"/>
		<stop  offset="1" style="stop-color:#F7393C"/>
	</linearGradient>
	<path class="st1" d="M7.5,48.8V15c0-3.6,2.9-6.5,6.5-6.5h66c3.6,0,6.5,2.9,6.5,6.5v66c0,3.6-2.9,6.5-6.5,6.5H46.1
		c-1.7,0-3.4-0.7-4.6-1.9L9.4,53.4C8.1,52.2,7.5,50.5,7.5,48.8z"/>
</g>
<path class="st2" d="M47,26.7H29c-1.5,0-2.8,1.2-2.8,2.8v18v18c0,1.5,1.2,2.8,2.8,2.8h15.3c1.5,0,2.8-1.2,2.8-2.8V50.2
	c0-1.5,1.2-2.8,2.8-2.8H65c1.5,0,2.8-1.2,2.8-2.8V29.5c0-1.5-1.2-2.8-2.8-2.8H47z"/>
</svg>
