<?xml version="1.0" encoding="utf-8"?>
<!-- Generator: Adobe Illustrator 25.2.0, SVG Export Plug-In . SVG Version: 6.00 Build 0)  -->
<svg version="1.1" id="Camada_1" xmlns="http://www.w3.org/2000/svg" xmlns:xlink="http://www.w3.org/1999/xlink" x="0px" y="0px"
	 viewBox="0 0 117 102" style="enable-background:new 0 0 117 102;" xml:space="preserve">
<style type="text/css">
	.st0{fill:none;stroke:#FFFFFF;stroke-miterlimit:10;}
	.st1{fill:#FFFFFF;}
</style>
<g>
	<path class="st0" d="M20,52.8V19c0-3.6,2.9-6.5,6.5-6.5h66c3.6,0,6.5,2.9,6.5,6.5v66c0,3.6-2.9,6.5-6.5,6.5H58.6
		c-1.7,0-3.4-0.7-4.6-1.9L21.9,57.4C20.6,56.2,20,54.5,20,52.8z"/>
</g>
<path class="st1" d="M59.5,30.7h-18c-1.5,0-2.8,1.2-2.8,2.8v18v18c0,1.5,1.2,2.8,2.8,2.8h15.3c1.5,0,2.8-1.2,2.8-2.8V54.2
	c0-1.5,1.2-2.8,2.8-2.8h15.1c1.5,0,2.8-1.2,2.8-2.8V33.5c0-1.5-1.2-2.8-2.8-2.8H59.5z"/>
</svg>
