<?xml version="1.0" encoding="UTF-8" standalone="no"?>
<svg
   xmlns:dc="http://purl.org/dc/elements/1.1/"
   xmlns:cc="http://creativecommons.org/ns#"
   xmlns:rdf="http://www.w3.org/1999/02/22-rdf-syntax-ns#"
   xmlns:svg="http://www.w3.org/2000/svg"
   xmlns="http://www.w3.org/2000/svg"
   viewBox="0 0 2560 1440"
   height="1440"
   width="2560"
   xml:space="preserve"
   id="svg2"
   version="1.1"><metadata
     id="metadata8"><rdf:RDF><cc:Work
         rdf:about=""><dc:format>image/svg+xml</dc:format><dc:type
           rdf:resource="http://purl.org/dc/dcmitype/StillImage" /></cc:Work></rdf:RDF></metadata><defs
     id="defs6"><clipPath
       id="clipPath202"
       clipPathUnits="userSpaceOnUse"><path
         id="path200"
         d="m 9179.09,3719.22 c -62.11,-36.67 -130.59,-76.46 -192.82,-112.05 158.05,-656.26 575.86,-1266.19 772.13,-1526.86 l 192.81,112.05 c -196.26,260.67 -614.07,870.6 -772.12,1526.86 z" /></clipPath><clipPath
       id="clipPath230"
       clipPathUnits="userSpaceOnUse"><path
         id="path228"
         d="m 9759.31,2400.73 192.81,112.06 c -186.78,272.18 -446.58,708.45 -555.86,1162.26 L 9203.44,3563 c 109.29,-453.81 369.08,-890.08 555.87,-1162.27 z" /></clipPath><clipPath
       id="clipPath256"
       clipPathUnits="userSpaceOnUse"><path
         id="path254"
         d="m 10086.5,2563.49 c -46.8,-21.69 -92.45,-38.18 -134.38,-50.7 l -192.81,-112.06 c 41.93,12.53 87.56,29.02 134.36,50.71 64.28,37.35 128.53,74.7 192.83,112.05 z" /></clipPath><clipPath
       id="clipPath268"
       clipPathUnits="userSpaceOnUse"><path
         id="path266"
         d="M 10322.4,2324.83 C 10182.7,2243.66 10042.8,2208 9951.21,2192.36 L 9758.4,2080.31 c 91.63,15.64 231.49,51.3 371.1,132.47 57.9,33.62 135,78.44 192.9,112.05 z" /></clipPath><clipPath
       id="clipPath286"
       clipPathUnits="userSpaceOnUse"><path
         id="path284"
         d="m 10086.5,2563.49 c -0.7,-0.37 -1.7,-0.96 -2.4,-1.37 -63.5,-36.9 -126.94,-73.79 -190.43,-110.68 24.68,11.43 49.69,24.32 74.66,38.83 l 192.87,112.05 c -25,-14.51 -50,-27.39 -74.7,-38.83 z" /></clipPath><clipPath
       id="clipPath298"
       clipPathUnits="userSpaceOnUse"><path
         id="path296"
         d="m 9027.95,4806.53 c -51.58,-30.09 -141.68,-82.46 -192.82,-112.05 -2.55,-191.11 19.9,-542.32 151.14,-1087.31 l 192.82,112.05 c -131.25,544.99 -153.69,896.2 -151.14,1087.31 z" /></clipPath><clipPath
       id="clipPath312"
       clipPathUnits="userSpaceOnUse"><path
         id="path310"
         d="m 9264.6,4446.45 c -51.57,-30.1 -141.68,-82.47 -192.81,-112.06 14.62,-180.92 50.55,-434.77 131.65,-771.39 l 192.82,112.05 c -81.1,336.62 -117.03,590.47 -131.66,771.4 z" /></clipPath><clipPath
       id="clipPath326"
       clipPathUnits="userSpaceOnUse"><path
         id="path324"
         d="m 9764.38,4191.76 192.82,112.05 c -210.2,5.96 -439.78,52.76 -685.6,140.11 -2.37,0.86 -4.64,1.67 -7,2.53 l -192.81,-112.06 c 2.36,-0.85 4.63,-1.67 6.99,-2.52 245.82,-87.35 475.41,-134.16 685.6,-140.11 z" /></clipPath><clipPath
       id="clipPath342"
       clipPathUnits="userSpaceOnUse"><path
         id="path340"
         d="m 9765.21,4485.9 192.82,112.05 c -354.24,-14.21 -712.1,112.09 -930.08,208.58 l -192.81,-112.05 c 217.98,-96.5 575.84,-222.8 930.07,-208.58 z" /></clipPath><clipPath
       id="clipPath360"
       clipPathUnits="userSpaceOnUse"><path
         id="path358"
         d="m 9968.26,2490.23 192.84,112.06 c 139.6,81.14 278.1,213.23 351.6,428.21 82.7,242.03 120,453.57 135.5,617.11 l -192.8,-112.06 c -15.5,-163.54 -52.8,-375.08 -135.6,-617.1 -73.4,-214.98 -211.9,-347.08 -351.54,-428.22 z" /></clipPath><clipPath
       id="clipPath370"
       clipPathUnits="userSpaceOnUse"><path
         id="path368"
         d="m 10455.4,3535.55 192.8,112.06 c -2.3,1.85 -4.6,3.67 -6.9,5.53 -245.5,196.28 -474.6,414.29 -684.1,650.67 l -192.82,-112.05 c 209.54,-236.38 438.62,-454.39 684.02,-650.67 2.4,-1.86 4.7,-3.68 7,-5.54 z" /></clipPath><clipPath
       id="clipPath386"
       clipPathUnits="userSpaceOnUse"><path
         id="path384"
         d="m 10129.4,2212.72 192.9,112.06 c 160.6,93.34 320.9,246.86 407.2,499.34 134.8,394.96 159.1,717.49 157.5,908.87 l -192.8,-112.05 c 1.6,-191.38 -22.7,-513.91 -157.6,-908.88 -86.2,-252.47 -246.6,-406 -407.2,-499.34 z" /></clipPath><clipPath
       id="clipPath398"
       clipPathUnits="userSpaceOnUse"><path
         id="path396"
         d="m 10694.2,3620.94 192.8,112.05 c -217.7,155.06 -575.5,441.87 -928.97,864.96 L 9765.21,4485.9 c 353.49,-423.09 711.29,-709.9 928.99,-864.96 z" /></clipPath></defs><g
     transform="matrix(1.3333333,0,0,-1.3333333,0,1440)"
     id="g10"><g
       transform="scale(0.1)"
       id="g12"><g
         transform="scale(1.17791)"
         id="g14"><path
           id="path16"
           style="fill:#fafcfe;fill-opacity:1;fill-rule:nonzero;stroke:none"
           d="M 16300,0 H 0 V 9168.75 H 16300 V 0" /></g><g
         transform="scale(1.17791)"
         id="g18"><path
           id="path20"
           style="fill:#d4e0f4;fill-opacity:1;fill-rule:nonzero;stroke:none"
           d="M 5768.19,-98.0547 17012.9,1982.3 V -631.539 c 0,0 -4988.7,-290.43 -5520.3,-459.881 -531.7,-169.45 -5724.41,993.3653 -5724.41,993.3653" /></g><path
         id="path22"
         style="fill:#d4e0f4;fill-opacity:1;fill-rule:nonzero;stroke:none"
         d="M -16.1523,6431.25 9794.93,11154 5833.36,11266.3 Z" /><path
         id="path24"
         style="fill:#f0f5fc;fill-opacity:1;fill-rule:nonzero;stroke:none"
         d="M -978.414,5878.78 8221.76,11161 -2569.75,11636.7 Z" /><path
         id="path26"
         style="fill:#d4e0f4;fill-opacity:1;fill-rule:nonzero;stroke:none"
         d="M -447.164,2400.73 6635.97,-1787.6 H -919.375 Z" /><g
         transform="scale(1.17791)"
         id="g28"><path
           id="path30"
           style="fill:#f0f5fc;fill-opacity:1;fill-rule:nonzero;stroke:none"
           d="M 2556.07,-476.01 18130.3,1356.49 15688.1,-649.622 2556.07,-476.01" /></g><g
         transform="scale(1.17791)"
         id="g32"><path
           id="path34"
           style="fill:#d4e0f4;fill-opacity:1;fill-rule:nonzero;stroke:none"
           d="M 9547.22,9531.92 17482.8,7463.3 17157.1,9995.98 9547.22,9531.92" /></g><path
         id="path36"
         style="fill:#263775;fill-opacity:1;fill-rule:nonzero;stroke:none"
         d="m 12958.7,7326.17 c 0,-61.66 -101.5,-111.65 -226.8,-111.65 -125.3,0 -226.8,49.99 -226.8,111.65 0,61.66 101.5,111.64 226.8,111.64 125.3,0 226.8,-49.98 226.8,-111.64" /><path
         id="path38"
         style="fill:#8fa9dd;fill-opacity:1;fill-rule:nonzero;stroke:none"
         d="m 12998.4,7779.01 -1,-24.61 -8.8,-214.88 c 0,-47.7 -42.2,-81.45 -67.3,-97.33 -49.1,-30.93 -115.1,-47.98 -185.8,-47.98 -70.8,0 -136.8,17.05 -185.9,47.98 -25.1,15.88 -67.3,49.63 -67.3,97.33 l -5.2,126.64 -4.6,112.85 h 525.9" /><path
         id="path40"
         style="fill:#263775;fill-opacity:1;fill-rule:nonzero;stroke:none"
         d="m 12998.4,7779.01 -1,-24.61 c 0,0 -179.2,-206.77 -520.3,-88.24 l -4.6,112.85 h 525.9" /><path
         id="path42"
         style="fill:#d4e0f4;fill-opacity:1;fill-rule:nonzero;stroke:none"
         d="m 13043.6,7948.34 c 0,-11.58 -1.6,-22.93 -4.6,-33.96 -25.5,-91.19 -151.7,-160.48 -303.5,-160.48 -151.9,0 -278.1,69.29 -303.6,160.48 -3,11.03 -4.6,22.38 -4.6,33.96 0,107.41 137.9,194.47 308.2,194.47 170.2,0 308.1,-87.06 308.1,-194.47" /><path
         id="path44"
         style="fill:#8fa9dd;fill-opacity:1;fill-rule:nonzero;stroke:none"
         d="m 13043.6,7948.34 v -67.92 c 0,-107.4 -137.9,-194.46 -308.1,-194.46 -170.3,0 -308.2,87.06 -308.2,194.46 v 67.92 c 0,-11.58 1.6,-22.93 4.6,-33.96 25.5,-91.19 151.7,-160.48 303.6,-160.48 151.8,0 278,69.29 303.5,160.48 3,11.03 4.6,22.38 4.6,33.96" /><path
         id="path46"
         style="fill:#263775;fill-opacity:1;fill-rule:nonzero;stroke:none"
         d="m 12735.5,7795.19 c -74.7,0 -144.2,17.96 -195.9,50.58 -26.6,16.74 -71,52.32 -71,102.58 0,50.27 44.4,85.85 71,102.58 51.7,32.62 121.2,50.59 195.9,50.59 74.6,0 144.1,-17.97 195.8,-50.59 26.6,-16.73 71.1,-52.31 71.1,-102.58 0,-50.26 -44.5,-85.85 -71.1,-102.58 -51.7,-32.62 -121.2,-50.58 -195.8,-50.58" /><path
         id="path48"
         style="fill:#d4e0f4;fill-opacity:1;fill-rule:nonzero;stroke:none"
         d="m 12586.8,7943.47 c -21,6.1 -43.4,5.44 -65,8.59 -21.7,3.15 -44.4,11.34 -56.4,29.64 -23.3,35.41 5,86.97 -15.8,123.83 -12.7,22.38 -40.2,32.22 -65.9,33.4 -25.7,1.17 -51.3,-4.45 -77,-4.52 -25.7,-0.06 -53.5,6.82 -69.3,27.15 -20.9,26.9 -13,65.24 -5.3,98.41 7.6,33.17 12.2,73.07 -12.5,96.58 -20.2,19.34 -51.6,18.96 -77.9,28.65 -30.4,11.25 -54.3,36.97 -67.5,66.63 -13.2,29.66 -16.6,62.98 -14.4,95.39 5.3,78.9 45.2,156.37 110.9,200.5 65.6,44.13 156.5,50.95 224.7,10.87 68.1,-40.07 106.6,-127.85 83.6,-203.49 -8.3,-27.15 -23.6,-56.29 -11.8,-82.11 7.9,-17.38 26.3,-27.57 44.7,-32.99 18.3,-5.43 37.6,-7.33 55.4,-14.31 34.1,-13.34 59.8,-46.02 64.7,-82.25 4.9,-36.24 -11.2,-74.58 -40.4,-96.51 -11.8,-8.81 -25.4,-15.11 -36.2,-25.08 -10.8,-9.98 -18.6,-25.45 -13.7,-39.33 5.6,-15.86 24.6,-22.49 41.4,-23.19 16.8,-0.71 34.2,2.28 50,-3.29 20.1,-7.02 33.5,-26.74 38.8,-47.32 5.2,-20.59 3.6,-42.22 1.9,-63.39 -3.2,-40.55 -6.4,-81.11 -9.6,-121.66 -0.7,-8.95 -1.4,-18.19 -5.6,-26.16 -4,-7.85 -14.6,-16.68 -24.2,-12.9 -12.6,5.02 -5,11.12 -7.7,19.77 -6.4,20.85 -16.6,32.31 -39.9,39.09" /><path
         id="path50"
         style="fill:#8fa9dd;fill-opacity:1;fill-rule:nonzero;stroke:none"
         d="m 12636.2,7929.84 c -7.4,49.25 -26.3,96.69 -54.2,137.91 -13.8,20.37 -29.8,39.32 -47.7,56.21 -17.9,16.97 -38.5,30.51 -57.5,46.19 -19.1,15.76 -34.2,33.97 -40.2,58.48 -5.7,23.51 -4.6,48.01 -6.5,71.98 -1.8,23.12 -6.4,46.52 -20.8,65.34 -14.1,18.39 -34.6,29.82 -53.9,41.88 -22.5,14.07 -41.9,30.54 -51.8,55.91 -9.5,24.32 -9.9,51.36 -0.2,75.67 2.9,7.45 -9.1,10.68 -12,3.31 -17.5,-44.04 -3.9,-97.64 32.6,-127.91 17.8,-14.8 38.9,-24.64 57.3,-38.68 9.1,-7.03 17.4,-15.34 23.2,-25.39 5.9,-10.18 9.2,-21.56 11.1,-33.1 4.1,-23.81 2.7,-48.19 5.5,-72.13 3,-24.41 10.7,-46.55 27,-65.26 16.6,-18.91 38.2,-32.3 57.6,-47.86 19.3,-15.39 36.7,-33 52,-52.32 35,-44.28 58.1,-97.74 66.5,-153.54 1.2,-7.89 13.2,-4.54 12,3.31" /><path
         id="path52"
         style="fill:#d4e0f4;fill-opacity:1;fill-rule:nonzero;stroke:none"
         d="m 12834.9,7943.47 c 21,6.1 43.3,5.44 65,8.59 21.7,3.15 44.4,11.34 56.4,29.64 23.2,35.41 -5.1,86.97 15.8,123.83 12.6,22.38 40.2,32.22 65.9,33.4 25.7,1.17 51.2,-4.45 76.9,-4.52 25.7,-0.06 53.6,6.82 69.3,27.15 20.9,26.9 13,65.24 5.4,98.41 -7.7,33.17 -12.2,73.07 12.4,96.58 20.2,19.34 51.7,18.96 77.9,28.65 30.5,11.25 54.3,36.97 67.5,66.63 13.2,29.66 16.6,62.98 14.4,95.39 -5.3,78.9 -45.2,156.37 -110.8,200.5 -65.6,44.13 -156.5,50.95 -224.7,10.87 -68.2,-40.07 -106.7,-127.85 -83.6,-203.49 8.3,-27.15 23.6,-56.29 11.8,-82.11 -8,-17.38 -26.4,-27.57 -44.7,-32.99 -18.3,-5.43 -37.7,-7.33 -55.5,-14.31 -34,-13.34 -59.7,-46.02 -64.6,-82.25 -4.9,-36.24 11.1,-74.58 40.4,-96.51 11.7,-8.81 25.4,-15.11 36.2,-25.08 10.8,-9.98 18.5,-25.45 13.7,-39.33 -5.6,-15.86 -24.6,-22.49 -41.4,-23.19 -16.8,-0.71 -34.2,2.28 -50.1,-3.29 -20,-7.02 -33.5,-26.74 -38.7,-47.32 -5.3,-20.59 -3.6,-42.22 -2,-63.39 3.2,-40.55 6.4,-81.11 9.6,-121.66 0.7,-8.95 1.5,-18.19 5.6,-26.16 4.1,-7.85 14.7,-16.68 24.2,-12.9 12.6,5.02 5,11.12 7.7,19.77 6.5,20.85 16.6,32.31 40,39.09" /><path
         id="path54"
         style="fill:#8fa9dd;fill-opacity:1;fill-rule:nonzero;stroke:none"
         d="m 12785.4,7929.84 c 7.5,49.25 26.3,96.69 54.2,137.91 13.8,20.37 29.8,39.32 47.7,56.21 18,16.97 38.5,30.51 57.5,46.19 19.2,15.76 34.3,33.97 40.2,58.48 5.8,23.51 4.6,48.01 6.6,71.98 1.8,23.12 6.4,46.52 20.8,65.34 14.1,18.39 34.5,29.82 53.8,41.88 22.5,14.07 42,30.54 51.9,55.91 9.4,24.32 9.8,51.36 0.2,75.67 -3,7.45 9,10.68 12,3.31 17.4,-44.04 3.8,-97.64 -32.6,-127.91 -17.8,-14.8 -39,-24.64 -57.3,-38.68 -9.2,-7.03 -17.5,-15.34 -23.3,-25.39 -5.9,-10.18 -9.1,-21.56 -11.1,-33.1 -4.1,-23.81 -2.6,-48.19 -5.5,-72.13 -2.9,-24.41 -10.6,-46.55 -27,-65.26 -16.5,-18.91 -38.1,-32.3 -57.6,-47.86 -19.2,-15.39 -36.6,-33 -51.9,-52.32 -35.1,-44.28 -58.1,-97.74 -66.6,-153.54 -1.2,-7.89 -13.2,-4.54 -12,3.31" /><path
         id="path56"
         style="fill:#8fa9dd;fill-opacity:1;fill-rule:nonzero;stroke:none"
         d="m 12681,7979 c -15.6,20.39 -40.4,30.83 -63.3,42.6 -22.8,11.77 -46.2,27.78 -53.4,52.42 -9.6,33 13.4,65.96 36.1,91.81 22.6,25.84 48,55.54 44,89.67 -3.2,27.2 -24.9,48.69 -48.3,62.98 -23.3,14.27 -49.6,23.76 -71.6,39.99 -61.8,45.54 -73.9,145.2 -24.7,204.17 18.1,21.79 42.4,37.59 62.6,57.5 20.2,19.9 37.1,46.73 33.8,74.91 -5.5,46.22 -57.7,68.47 -91.4,100.54 -43.1,40.98 -58,104.2 -57,163.66 1.5,101.07 45,201.76 120.7,268.73 75.7,66.98 183.3,97.84 282.1,76.6 98.8,-21.24 185.6,-95.75 217.2,-191.76 31.6,-96.01 4.7,-209.91 -69.8,-278.32 -24.4,-22.43 -53.1,-39.94 -77,-62.94 -23.8,-22.99 -43.3,-53.83 -41.7,-86.94 3.8,-74.59 107.4,-116.81 105.7,-191.47 -1.1,-44.93 -40.6,-78.27 -77.4,-104.05 -36.8,-25.78 -77.8,-55.6 -84.4,-100.07 -6.4,-43.74 23.1,-83.46 46.9,-120.77 23.7,-37.32 42.4,-87.61 16.7,-123.56 -17,-23.81 -47.7,-32.34 -73.8,-45.62 -26.1,-13.27 -51.7,-40.14 -43.2,-68.17 2.7,-8.92 8.7,-16.79 10,-26.01 3.5,-23.64 -26.5,-40.75 -49.6,-34.43 -18.4,5.08 -47.1,25.75 -46.7,45.96 0.2,9.83 9.2,19.21 8.8,30.8 -0.3,11.26 -4.4,22.82 -11.3,31.77" /><path
         id="path58"
         style="fill:#d4e0f4;fill-opacity:1;fill-rule:nonzero;stroke:none"
         d="m 12763.3,8972.82 c 5.3,5.95 -3.4,14.79 -8.8,8.8 -38,-42.58 -48.7,-101.61 -45.6,-157.09 3.8,-67.65 27.3,-132.13 35.1,-199.19 8.1,-70.03 -0.3,-140.55 -11.9,-209.68 -11.2,-66.94 -25.3,-133.5 -30.8,-201.25 -5.3,-64.02 -3,-129.88 16.9,-191.44 2.4,-7.64 5.2,-15.18 8.2,-22.63 2.9,-7.35 14.9,-4.14 12,3.31 -23.9,59.48 -29.5,123.85 -26.3,187.39 3.4,66.13 16.2,131.14 27.7,196.21 12,68.2 22.7,137.42 19.2,206.89 -3.4,68.36 -25.5,133.3 -34.8,200.76 -7.4,54.28 -4.6,114.49 26.5,161.54 3.8,5.78 8,11.21 12.6,16.38" /><path
         id="path60"
         style="fill:none;stroke:#263775;stroke-width:50;stroke-linecap:round;stroke-linejoin:round;stroke-miterlimit:10;stroke-dasharray:none;stroke-opacity:1"
         d="m 12994.6,7685.96 -5.6,-138.67" /><path
         id="path62"
         style="fill:none;stroke:#263775;stroke-width:50;stroke-linecap:round;stroke-linejoin:round;stroke-miterlimit:10;stroke-dasharray:none;stroke-opacity:1"
         d="m 12496,7493.54 c 0,0 61,-111.42 268.3,-98.36" /><path
         id="path64"
         style="fill:none;stroke:#263775;stroke-width:50;stroke-linecap:round;stroke-linejoin:round;stroke-miterlimit:10;stroke-dasharray:none;stroke-opacity:1"
         d="m 12062.6,8489.9 c -3.4,18.8 -4.1,38.22 -2.8,57.32 5.3,78.9 45.2,156.37 110.9,200.5 65.6,44.13 156.5,50.95 224.7,10.87 62.9,-37.02 100.6,-114.75 87.8,-186.01" /><path
         id="path66"
         style="fill:none;stroke:#263775;stroke-width:50;stroke-linecap:round;stroke-linejoin:round;stroke-miterlimit:10;stroke-dasharray:none;stroke-opacity:1"
         d="m 12664.2,7923.67 c -0.7,-8.95 -1.4,-18.19 -5.6,-26.16 -4,-7.85 -14.6,-16.68 -24.2,-12.9 -12.6,5.02 -5,11.12 -7.7,19.77 -6.4,20.85 -16.6,32.31 -39.9,39.09 -21,6.1 -43.4,5.44 -65,8.59 -21.7,3.15 -44.4,11.34 -56.4,29.64 -23.3,35.41 5,86.97 -15.8,123.83 -12.7,22.38 -40.2,32.22 -65.9,33.4 -25.7,1.17 -51.3,-4.45 -77,-4.52 -25.7,-0.06 -53.5,6.82 -69.3,27.15 -20.9,26.9 -13,65.24 -5.3,98.41 7.6,33.17 12.2,73.07 -12.5,96.58 -20.2,19.34 -51.6,18.96 -77.9,28.65 -12.1,4.47 -23.2,11.24 -32.9,19.64" /><path
         id="path68"
         style="fill:none;stroke:#263775;stroke-width:50;stroke-linecap:round;stroke-linejoin:round;stroke-miterlimit:10;stroke-dasharray:none;stroke-opacity:1"
         d="m 12848.9,8201.56 c 6.8,-11.33 14.2,-22.42 21.2,-33.3 23.7,-37.32 42.4,-87.61 16.7,-123.56 -17,-23.81 -47.7,-32.34 -73.8,-45.62 -26.1,-13.27 -51.7,-40.14 -43.2,-68.17 2.7,-8.92 8.7,-16.79 10,-26.01 3.5,-23.64 -26.5,-40.75 -49.6,-34.43 -18.4,5.08 -47.1,25.75 -46.7,45.96 0.2,9.83 9.2,19.21 8.8,30.8 -0.3,11.26 -4.4,22.82 -11.3,31.77 -15.6,20.39 -40.4,30.83 -63.3,42.6 -22.8,11.77 -46.2,27.78 -53.4,52.42 -9.6,33 13.4,65.96 36.1,91.81 22.6,25.84 48,55.54 44,89.67 -3.2,27.2 -24.9,48.69 -48.3,62.98 -23.3,14.27 -49.6,23.76 -71.6,39.99 -33.1,24.39 -52,64.31 -54.8,105.19" /><path
         id="path70"
         style="fill:none;stroke:#263775;stroke-width:50;stroke-linecap:round;stroke-linejoin:round;stroke-miterlimit:10;stroke-dasharray:none;stroke-opacity:1"
         d="m 12532.5,8772.85 c -9.7,7.32 -19.2,14.72 -27.7,22.74 -43.1,40.98 -58,104.2 -57,163.66 1.5,101.07 45,201.76 120.7,268.73 75.7,66.98 183.3,97.84 282.1,76.6 98.8,-21.24 185.6,-95.75 217.2,-191.76 31.6,-96.01 4.7,-209.91 -69.8,-278.32 -24.4,-22.43 -53.1,-39.94 -77,-62.94 -23.8,-22.99 -43.3,-53.83 -41.7,-86.94 0.5,-8.19 2.1,-15.99 4.6,-23.48" /><path
         id="path72"
         style="fill:none;stroke:#263775;stroke-width:50;stroke-linecap:round;stroke-linejoin:round;stroke-miterlimit:10;stroke-dasharray:none;stroke-opacity:1"
         d="m 13101.3,8783.52 c -26.4,-3.21 -52,-11.39 -75,-24.93 -21,-12.32 -39.1,-29.16 -53.6,-48.76" /><path
         id="path74"
         style="fill:none;stroke:#263775;stroke-width:50;stroke-linecap:round;stroke-linejoin:round;stroke-miterlimit:10;stroke-dasharray:none;stroke-opacity:1"
         d="m 12787.2,7884.61 c 12.6,5.02 5,11.12 7.7,19.77 6.5,20.85 16.6,32.31 40,39.09 21,6.1 43.3,5.44 65,8.59 21.7,3.15 44.4,11.34 56.4,29.64 23.2,35.41 -5.1,86.97 15.8,123.83 12.6,22.38 40.2,32.22 65.9,33.4 25.7,1.17 51.2,-4.45 76.9,-4.52 25.7,-0.06 53.6,6.82 69.3,27.15 20.9,26.9 13,65.24 5.4,98.41 -7.7,33.17 -12.2,73.07 12.4,96.58 20.2,19.34 51.7,18.96 77.9,28.65 30.5,11.25 54.3,36.97 67.5,66.63 13.2,29.66 16.6,62.98 14.4,95.39 -5.3,78.9 -45.2,156.37 -110.8,200.5 -8.2,5.5 -16.8,10.42 -25.6,14.74" /><g
         transform="scale(1.07349)"
         id="g76"><path
           id="path78"
           style="fill:#263775;fill-opacity:1;fill-rule:nonzero;stroke:none"
           d="m 13288.3,5070.74 2669.8,-1535.25 c 39.4,-22.62 87.8,-22.7 127.2,-0.21 l 128.5,73.32 c 85.9,48.99 86.2,172.75 0.5,222.04 l -2669.9,1535.24 c -39.3,22.63 -87.7,22.71 -127.1,0.22 l -128.6,-73.33 c -85.9,-48.98 -86.1,-172.74 -0.4,-222.03" /></g><path
         id="path80"
         style="fill:#263775;fill-opacity:1;fill-rule:nonzero;stroke:none"
         d="M 10742.5,3491.54 13785.4,1741.8 c 44.8,-25.79 100,-25.89 144.9,-0.26 l 146.5,83.57 c 97.9,55.84 98.2,196.87 0.5,253.05 l -3042.9,1749.75 c -44.8,25.78 -100,25.88 -144.9,0.25 l -146.5,-83.57 c -97.9,-55.83 -98.2,-196.88 -0.5,-253.05" /><path
         id="path82"
         style="fill:#263775;fill-opacity:1;fill-rule:nonzero;stroke:none"
         d="m 12289.9,4094.08 3042.9,-1749.74 c 44.8,-25.79 100,-25.88 144.9,-0.26 l 146.5,83.58 c 97.9,55.83 98.2,196.87 0.5,253.05 l -3042.9,1749.74 c -44.8,25.79 -100,25.89 -144.9,0.26 l -146.5,-83.57 c -97.9,-55.83 -98.2,-196.88 -0.5,-253.06" /><g
         transform="scale(1.05637)"
         id="g84"><path
           id="path86"
           style="fill:#27439e;fill-opacity:1;fill-rule:nonzero;stroke:none"
           d="m 15921,4059.71 378.3,219.91 0.7,223.59 -378.4,-219.89 -0.6,-223.61" /></g><g
         transform="scale(1.05637)"
         id="g88"><path
           id="path90"
           style="fill:#8fa9dd;fill-opacity:1;fill-rule:nonzero;stroke:none"
           d="m 15921.6,4283.32 378.4,219.89 -1470.7,849.08 -378.4,-219.89 1470.7,-849.08" /></g><g
         transform="scale(1.03185)"
         id="g92"><path
           id="path94"
           style="fill:#d4e0f4;fill-opacity:1;fill-rule:nonzero;stroke:none"
           d="m 14794.3,5254.36 -0.6,-228.9 1505.6,-869.27 0.7,228.92 -1505.7,869.25" /></g><g
         transform="scale(1.01255)"
         id="g96"><path
           id="path98"
           style="fill:#27439e;fill-opacity:1;fill-rule:nonzero;stroke:none"
           d="m 15904,4876.61 394.7,229.42 1.3,431.47 -394.8,-229.41 -1.2,-431.48" /></g><g
         transform="scale(1.01255)"
         id="g100"><path
           id="path102"
           style="fill:#b2bedd;fill-opacity:1;fill-rule:nonzero;stroke:none"
           d="m 15905.2,5308.09 394.8,229.41 -195.8,113.08 -394.9,-229.42 195.9,-113.07" /></g><path
         id="path104"
         style="fill:#d4e0f4;fill-opacity:1;fill-rule:nonzero;stroke:none"
         d="m 15906.5,5489.21 -1.2,-436.89 198.3,-114.5 1.2,436.9 -198.3,114.49" /><g
         transform="scale(1.13369)"
         id="g106"><path
           id="path108"
           style="fill:#263775;fill-opacity:1;fill-rule:nonzero;stroke:none"
           d="m 15940.6,3916.07 6.8,2434.56 352.6,204.91 -6.9,-2434.58 c -0.2,-49.44 -17.5,-84.22 -45.8,-100.58 l -352.5,-204.9 c 28.1,16.36 45.6,51.13 45.8,100.59" /></g><g
         transform="scale(1.13369)"
         id="g110"><path
           id="path112"
           style="fill:#8fa9dd;fill-opacity:1;fill-rule:nonzero;stroke:none"
           d="m 11975.5,8823.03 c -2.6,1.17 -5.2,2.12 -7.7,3.12 -3.8,1.43 -7.4,2.72 -11.1,3.81 -2.3,0.7 -4.7,1.39 -7,1.95 -2.1,0.52 -4.2,0.97 -6.4,1.37 -2.8,0.52 -5.6,0.97 -8.3,1.28 -1.6,0.17 -3.2,0.36 -4.7,0.47 -3.4,0.23 -6.8,0.3 -10.1,0.2 -0.8,-0.03 -1.5,0.02 -2.3,-0.02 -3.9,-0.23 -7.8,-0.74 -11.5,-1.46 -1,-0.18 -1.9,-0.43 -2.8,-0.64 -2.9,-0.68 -5.9,-1.5 -8.7,-2.49 -0.9,-0.3 -1.7,-0.59 -2.6,-0.92 -3.5,-1.41 -7,-2.99 -10.3,-4.89 l 352.6,204.9 c 0.3,0.16 0.6,0.32 0.9,0.49 2.6,1.43 5.1,2.71 7.8,3.84 0.6,0.21 1.1,0.35 1.6,0.55 0.8,0.35 1.8,0.62 2.7,0.94 1.3,0.47 2.6,1.03 4,1.44 1.5,0.43 3,0.69 4.5,1.04 1,0.21 1.9,0.46 2.9,0.64 0.5,0.1 0.9,0.26 1.5,0.35 3,0.53 6.2,0.9 9.4,1.1 0.2,0.02 0.4,0 0.6,0.01 0.8,0.04 1.6,-0.01 2.3,0.01 2.5,0.09 4.9,0.18 7.5,0.07 0.8,-0.04 1.7,-0.2 2.6,-0.26 1.6,-0.11 3.1,-0.29 4.7,-0.47 1.4,-0.17 2.8,-0.21 4.3,-0.44 1.4,-0.2 2.7,-0.6 4,-0.84 2.1,-0.4 4.3,-0.85 6.4,-1.37 1.2,-0.29 2.3,-0.42 3.5,-0.74 1.1,-0.31 2.3,-0.87 3.5,-1.22 3.6,-1.09 7.3,-2.36 11,-3.8 1.4,-0.51 2.6,-0.8 3.9,-1.35 1.3,-0.53 2.6,-1.19 3.9,-1.77 1.2,-0.55 2.5,-1.11 3.7,-1.69 4.8,-2.25 9.5,-4.67 14.4,-7.46 l 3797.5,-2192.49 c 5,-2.91 10.1,-6.12 14.9,-9.5 1.7,-1.09 3.2,-2.3 4.8,-3.45 3.3,-2.39 6.6,-4.83 9.8,-7.42 1.8,-1.44 3.6,-2.93 5.4,-4.42 3,-2.52 5.9,-5.1 8.8,-7.76 1.8,-1.61 3.6,-3.25 5.3,-4.92 1.1,-1.05 2.2,-2.01 3.3,-3.08 1.2,-1.14 2.3,-2.42 3.4,-3.58 3.6,-3.62 7,-7.32 10.4,-11.14 1.1,-1.21 2.3,-2.3 3.4,-3.53 0.9,-1.05 1.8,-2.17 2.6,-3.23 2.1,-2.43 4.1,-4.93 6.1,-7.43 1.4,-1.64 2.8,-3.19 4,-4.85 1.1,-1.37 2,-2.82 3.1,-4.2 1.5,-1.95 2.9,-3.92 4.4,-5.91 1,-1.36 1.9,-2.67 3,-4.05 1.6,-2.34 3.2,-4.76 4.8,-7.13 0.9,-1.53 2,-3.03 3,-4.57 0.4,-0.63 0.8,-1.23 1.3,-1.87 2.7,-4.37 5.5,-8.79 8.1,-13.28 0.1,-0.3 0.3,-0.6 0.4,-0.91 0.6,-0.89 1.1,-1.81 1.5,-2.7 1.9,-3.19 3.7,-6.38 5.4,-9.61 0.8,-1.5 1.5,-3.01 2.3,-4.51 0.8,-1.58 1.6,-3.15 2.4,-4.73 0.7,-1.38 1.4,-2.73 2.1,-4.11 1.8,-3.66 3.5,-7.36 5,-11.05 0.3,-0.67 0.7,-1.34 0.9,-2 0.1,-0.2 0.3,-0.38 0.3,-0.58 2,-4.66 4,-9.36 5.8,-14.07 0.3,-0.86 0.6,-1.73 0.9,-2.58 0.6,-1.71 1.2,-3.43 1.8,-5.14 0.9,-2.38 1.8,-4.73 2.6,-7.1 0.6,-1.82 1.1,-3.66 1.7,-5.48 0.7,-2.16 1.3,-4.32 1.9,-6.47 0.5,-1.34 0.9,-2.69 1.3,-4.03 0.7,-2.4 1.1,-4.78 1.7,-7.18 0.7,-2.65 1.4,-5.32 2,-7.97 0.2,-0.95 0.5,-1.9 0.7,-2.84 0.4,-1.94 0.6,-3.86 1,-5.8 0.8,-4.16 1.5,-8.31 2.1,-12.43 0.2,-1.16 0.5,-2.34 0.7,-3.5 0.2,-2.61 0.4,-5.19 0.7,-7.8 0.1,-1.84 0.4,-3.68 0.5,-5.52 0.4,-5.83 0.7,-11.62 0.7,-17.32 l -352.6,-204.91 c 0,5.71 -0.2,11.51 -0.7,17.32 -0.1,1.84 -0.3,3.69 -0.5,5.54 -0.4,3.74 -0.8,7.5 -1.3,11.28 -0.6,4.13 -1.4,8.3 -2.2,12.47 -0.6,2.86 -1.1,5.72 -1.7,8.59 -0.6,2.66 -1.2,5.34 -1.9,8.01 -1,3.73 -2,7.46 -3,11.19 -0.7,2.16 -1.4,4.31 -2,6.45 -1.3,4.21 -2.7,8.41 -4.2,12.61 -0.6,1.7 -1.3,3.41 -1.9,5.12 -2.2,5.76 -4.5,11.52 -6.9,17.23 -0.3,0.67 -0.7,1.33 -0.9,1.99 -2.3,5.12 -4.7,10.18 -7.2,15.21 -0.8,1.56 -1.6,3.11 -2.3,4.65 -2.5,4.76 -5.1,9.47 -7.7,14.13 -0.6,0.92 -1,1.84 -1.5,2.75 -3.2,5.44 -6.5,10.79 -9.9,16.07 -1,1.52 -2,3.02 -3,4.54 -2.6,3.77 -5.2,7.51 -7.9,11.18 -1.4,2 -2.8,3.97 -4.3,5.92 -2.3,3.07 -4.6,6.08 -7,9.07 -2.1,2.49 -4.1,4.97 -6.1,7.4 -2,2.31 -4.1,4.55 -6,6.79 -3.5,3.81 -6.9,7.51 -10.5,11.11 -2.2,2.25 -4.4,4.5 -6.6,6.67 -1.8,1.67 -3.6,3.3 -5.3,4.93 -2.9,2.66 -5.9,5.24 -8.9,7.75 -1.8,1.49 -3.6,2.98 -5.3,4.42 -3.3,2.58 -6.5,5.03 -9.9,7.42 -1.6,1.15 -3.2,2.35 -4.8,3.45 -4.9,3.38 -9.8,6.58 -14.9,9.5 l -3797.5,2192.48 c -4.8,2.8 -9.6,5.22 -14.3,7.46 -1.3,0.59 -2.5,1.15 -3.8,1.7" /></g><g
         transform="scale(1.10919)"
         id="g114"><path
           id="path116"
           style="fill:#d4e0f4;fill-opacity:1;fill-rule:nonzero;stroke:none"
           d="m 12258.6,9008.58 c -88.6,51.14 -160.6,10.02 -160.9,-91.64 l -7,-2488.35 c -0.3,-101.79 71.1,-225.59 159.8,-276.73 l 3881.4,-2240.92 c 88.4,-51.08 160.5,-10.14 160.8,91.64 l 7,2488.35 c 0.3,101.65 -71.3,225.65 -159.7,276.73 l -3881.4,2240.92" /></g><g
         transform="scale(1.10094)"
         id="g118"><path
           id="path120"
           style="fill:#ffffff;fill-opacity:1;fill-rule:nonzero;stroke:none"
           d="M 16300,6609.94 16292.8,4103 c 0,-25.25 -17.8,-35.33 -39.7,-22.79 L 12342.7,6337.9 c -21.9,12.72 -39.6,43.33 -39.6,68.58 l 7.1,2506.94 c 0,25.07 17.8,35.24 39.8,22.62 l 3910.6,-2257.7 c 21.8,-12.63 39.4,-43.33 39.4,-68.4" /></g><path
         id="path122"
         style="fill:#263775;fill-opacity:1;fill-rule:nonzero;stroke:none"
         d="m 10969.1,1597.83 c 0,-256 -421.6,-463.53 -941.7,-463.53 -520.05,0 -941.64,207.53 -941.64,463.53 0,256.01 421.59,463.54 941.64,463.54 520.1,0 941.7,-207.53 941.7,-463.54" /><path
         id="path124"
         style="fill:#263775;fill-opacity:1;fill-rule:nonzero;stroke:none"
         d="m 12877.6,915.16 c 0,-207.16 -341.1,-375.058 -762,-375.058 -420.8,0 -761.9,167.898 -761.9,375.058 0,207.14 341.1,375.07 761.9,375.07 420.9,0 762,-167.93 762,-375.07" /><g
         transform="scale(1.01731)"
         id="g126"><path
           id="path128"
           style="fill:#d4e0f4;fill-opacity:1;fill-rule:nonzero;stroke:none"
           d="m 16253.7,6736.54 -1673.3,966.11 c -25.5,14.74 -46.4,2.94 -46.4,-26.48 l -3.3,-1130.54 c -0.1,-29.34 20.7,-65.16 46.2,-79.89 l 1673.4,-966.11 c 25.5,-14.79 46.4,-2.93 46.5,26.39 l 0.1,59.72 -1766,1019.6 0.1,62.3 1766.1,-1019.6 2.4,845.14 -1766,1019.61 0.2,62.27 1765.9,-1019.6 0.3,101.11 c 0.1,29.42 -20.5,65.19 -46.2,79.97 m -1039.2,151.02 c -7.3,4.2 -14.6,11.62 -20.2,21.22 -11,19.22 -11,39.98 0.2,46.34 59.4,33.82 138.1,25.87 221.8,-22.43 83.6,-48.31 162.2,-131.18 221.2,-233.3 11.1,-19.21 11,-39.97 -0.2,-46.33 -5.5,-3.19 -12.9,-2.18 -20.2,2.02 -7.3,4.21 -14.5,11.65 -20.1,21.25 -48.2,83.54 -112.5,151.29 -180.9,190.81 -68.4,39.5 -132.9,46.02 -181.4,18.37 -5.6,-3.18 -12.9,-2.17 -20.2,2.05 m 79.2,-137.22 c -7.3,4.21 -14.5,11.6 -20.1,21.21 -11,19.24 -11,39.96 0.2,46.33 38,21.71 88.4,16.59 142.1,-14.37 53.7,-30.98 104,-84.09 141.7,-149.57 11.2,-19.22 11.2,-39.97 -0.1,-46.32 -5.6,-3.17 -12.8,-2.15 -20.1,2.05 -7.4,4.22 -14.6,11.65 -20.2,21.26 -27,46.84 -63.1,84.88 -101.5,107.07 -38.4,22.17 -74.5,25.81 -101.7,10.3 -5.6,-3.22 -13,-2.16 -20.3,2.04 m 120.5,-541.06 c -29.8,17.18 -53.8,58.9 -53.7,93.13 l 0.5,183.35 c -28.2,36.85 -46.8,83.82 -46.7,125.05 0.2,64.04 45.5,89.88 101.2,57.71 55.7,-32.19 100.9,-110.23 100.7,-174.27 -0.1,-41.23 -19.1,-66.51 -47.3,-70.78 l -0.6,-183.35 c -0.1,-34.23 -24.3,-48.04 -54.1,-30.84" /></g><path
         id="path130"
         style="fill:#131e36;fill-opacity:1;fill-rule:nonzero;stroke:none"
         d="m 15682.3,6783.93 c -56.7,32.73 -102.8,6.44 -103,-58.71 -0.1,-41.94 18.9,-89.72 47.5,-127.21 l -0.5,-186.53 c -0.1,-34.82 24.4,-77.26 54.7,-94.74 30.3,-17.5 54.9,-3.45 55,31.38 l 0.6,186.52 c 28.7,4.35 48,30.06 48.1,72.01 0.2,65.14 -45.7,144.53 -102.4,177.28" /><g
         transform="scale(1.00771)"
         id="g132"><path
           id="path134"
           style="fill:#8fa9dd;fill-opacity:1;fill-rule:nonzero;stroke:none"
           d="m 15708.4,8247.28 -283,163.36 c -326.6,188.64 -593.3,36.65 -594.4,-338.76 l -1.1,-359.72 292.5,-168.82 1,359.73 c 0.6,190.15 135.6,267.15 301.1,171.59 l 283,-163.35 c 165.4,-95.54 299.7,-328 299.1,-518.15 l -1,-359.73 292.3,-168.81 1.1,359.72 c 1,375.41 -263.9,834.33 -590.6,1022.94" /></g><g
         transform="scale(1.01728)"
         id="g136"><path
           id="path138"
           style="fill:#8fa9dd;fill-opacity:1;fill-rule:nonzero;stroke:none"
           d="m 16300,6555.61 -1766,1019.63 -0.2,-62.27 1766.1,-1019.63 0.1,62.27" /></g><path
         id="path140"
         style="fill:#131e36;fill-opacity:1;fill-rule:nonzero;stroke:none"
         d="m 15682.7,6921.26 c -54.6,31.49 -105.9,36.7 -144.6,14.62 -11.4,-6.48 -11.4,-27.56 -0.2,-47.14 5.7,-9.77 13.1,-17.29 20.5,-21.57 7.4,-4.28 14.9,-5.35 20.6,-2.08 27.7,15.78 64.4,12.08 103.5,-10.48 39.1,-22.57 75.8,-61.27 103.3,-108.92 5.6,-9.78 13,-17.34 20.5,-21.63 7.4,-4.27 14.8,-5.31 20.5,-2.08 11.4,6.46 11.4,27.57 0.1,47.12 -38.4,66.61 -89.6,120.64 -144.2,152.16" /><path
         id="path142"
         style="fill:#131e36;fill-opacity:1;fill-rule:nonzero;stroke:none"
         d="m 15683.1,7052.67 c -85.1,49.14 -165.2,57.23 -225.6,22.82 -11.4,-6.47 -11.4,-27.59 -0.2,-47.14 5.7,-9.77 13.1,-17.31 20.5,-21.59 7.4,-4.29 14.9,-5.32 20.6,-2.09 49.3,28.14 114.9,21.5 184.5,-18.68 69.6,-40.2 135,-109.13 184,-194.11 5.7,-9.77 13.1,-17.34 20.5,-21.62 7.4,-4.28 14.9,-5.3 20.5,-2.06 11.4,6.47 11.5,27.59 0.2,47.13 -60,103.89 -139.9,188.2 -225,237.34" /><g
         transform="scale(1.01712)"
         id="g144"><path
           id="path146"
           style="fill:#8fa9dd;fill-opacity:1;fill-rule:nonzero;stroke:none"
           d="m 16300,5649.06 -1766.4,1019.79 -0.1,-62.31 1766.3,-1019.79 0.2,62.31" /></g><path
         id="path148"
         style="fill:#8fa9dd;fill-opacity:1;fill-rule:nonzero;stroke:none"
         d="m 12638.4,7387.96 176.2,102.4 271.7,-666.26 -176.2,-102.4 -271.7,666.26" /><path
         id="path150"
         style="fill:#d4e0f4;fill-opacity:1;fill-rule:nonzero;stroke:none"
         d="m 11414.5,8094.57 176.2,102.39 1223.9,-706.6 -176.2,-102.4 -1223.9,706.61" /><path
         id="path152"
         style="fill:#d4e0f4;fill-opacity:1;fill-rule:nonzero;stroke:none"
         d="m 15097.9,5458.55 176.2,102.4 -7.7,-2722.41 -176.2,-102.4 7.7,2722.41" /><path
         id="path154"
         style="fill:#d4e0f4;fill-opacity:1;fill-rule:nonzero;stroke:none"
         d="m 12910.1,6721.7 176.2,102.4 2187.8,-1263.15 -176.2,-102.4 -2187.8,1263.15" /><path
         id="path156"
         style="fill:#263775;fill-opacity:1;fill-rule:nonzero;stroke:none"
         d="m 12638.4,7387.96 271.7,-666.26 2187.8,-1263.15 -7.7,-2722.41 -3684.9,2127.44 7.7,2722.42 1.5,508.57 1223.9,-706.61" /><path
         id="path158"
         style="fill:#f8fafd;fill-opacity:1;fill-rule:nonzero;stroke:none"
         d="m 10530.2,7406.29 v 1011.3 L 14771,5958.66 V 2413.12 l -4249.9,2524.54 9.1,2468.63" /><path
         id="path160"
         style="fill:#f0f5fc;fill-opacity:1;fill-rule:nonzero;stroke:none"
         d="m 10294.1,7406.29 v 1011.3 L 14534.9,5958.66 V 2413.12 l -4249.9,2524.54 9.1,2468.63" /><path
         id="path162"
         style="fill:#8fa9dd;fill-opacity:1;fill-rule:nonzero;stroke:none"
         d="m 10866.4,7211.08 v -93.42 l 3543.9,-2046.09 v 105.58 l -3543.9,2033.93" /><path
         id="path164"
         style="fill:#8fa9dd;fill-opacity:1;fill-rule:nonzero;stroke:none"
         d="m 10866.4,6783.49 v -93.43 l 3543.9,-2046.09 v 105.59 l -3543.9,2033.93" /><path
         id="path166"
         style="fill:#8fa9dd;fill-opacity:1;fill-rule:nonzero;stroke:none"
         d="m 10866.4,6355.89 v -93.42 l 3543.9,-2046.09 v 105.58 l -3543.9,2033.93" /><path
         id="path168"
         style="fill:#8fa9dd;fill-opacity:1;fill-rule:nonzero;stroke:none"
         d="m 10866.4,5928.3 v -93.43 l 3543.9,-2046.08 v 105.58 L 10866.4,5928.3" /><path
         id="path170"
         style="fill:#8fa9dd;fill-opacity:1;fill-rule:nonzero;stroke:none"
         d="m 10866.4,5500.7 v -93.42 l 3543.9,-2046.09 v 105.59 L 10866.4,5500.7" /><path
         id="path172"
         style="fill:#e6eef9;fill-opacity:1;fill-rule:nonzero;stroke:none"
         d="m 10069.5,7335.43 v 1011.3 L 14310.3,5887.8 V 2342.26 l -4249.9,2524.55 9.1,2468.62" /><path
         id="path174"
         style="fill:#8fa9dd;fill-opacity:1;fill-rule:nonzero;stroke:none"
         d="m 10413.4,7691.66 v -93.43 l 3543.9,-2046.08 v 105.58 l -3543.9,2033.93" /><path
         id="path176"
         style="fill:#8fa9dd;fill-opacity:1;fill-rule:nonzero;stroke:none"
         d="m 10413.4,7145.04 v -93.43 l 3543.9,-2046.08 v 105.58 l -3543.9,2033.93" /><path
         id="path178"
         style="fill:#263775;fill-opacity:1;fill-rule:nonzero;stroke:none"
         d="m 11345.4,6713.18 176.2,102.4 271.7,-666.26 -176.2,-102.4 -271.7,666.26" /><path
         id="path180"
         style="fill:#8fa9dd;fill-opacity:1;fill-rule:nonzero;stroke:none"
         d="m 10121.5,7419.79 176.2,102.4 1223.9,-706.61 -176.2,-102.4 -1223.9,706.61" /><path
         id="path182"
         style="fill:#d4e0f4;fill-opacity:1;fill-rule:nonzero;stroke:none"
         d="m 13804.9,4783.78 176.2,102.39 -7.7,-2722.41 -176.2,-102.39 7.7,2722.41" /><path
         id="path184"
         style="fill:#8fa9dd;fill-opacity:1;fill-rule:nonzero;stroke:none"
         d="m 11617.1,6046.92 176.2,102.4 2187.8,-1263.15 -176.2,-102.39 -2187.8,1263.14" /><path
         id="path186"
         style="fill:#d4e0f4;fill-opacity:1;fill-rule:nonzero;stroke:none"
         d="m 10115.2,5187.22 4.9,1724.01 1.4,508.56 1223.9,-706.61 271.7,-666.26 2187.8,-1263.14 -7.7,-2722.41 -3684.9,2127.44 2.9,998.41" /><path
         id="path188"
         style="fill:#8fa9dd;fill-opacity:1;fill-rule:nonzero;stroke:none"
         d="m 11796.2,5658.85 c -487.9,281.64 -884.5,55.58 -886.1,-504.95 -1.6,-560.54 392.5,-1243.16 880.3,-1524.8 487.8,-281.64 884.5,-55.58 886.1,504.95 1.6,560.54 -392.5,1243.16 -880.3,1524.8 m -86,-1157.29 356.4,420.61 c 20,23.6 53.2,23.5 87.1,3.94 19.5,-11.23 39.1,-28.87 56.6,-52.15 48,-63.69 61.4,-145.43 29.9,-182.64 l -421.8,-497.71 c -16.4,-19.55 -43,-23.58 -72.8,-11.09 -4.8,1.97 -9.5,4.34 -14.3,7.1 -24.9,14.37 -49.1,38.53 -68,68.57 l -297.6,470 c -43.2,68.25 -47.6,146.31 -9.9,174.36 20.6,15.33 49.5,12.57 78.5,-4.2 24.2,-13.97 48.5,-37.64 68.1,-68.64 l 207.8,-328.15" /><path
         id="path190"
         style="fill:#263775;fill-opacity:1;fill-rule:nonzero;stroke:none"
         d="m 12153.7,4926.11 c -33.9,19.56 -67.1,19.66 -87.1,-3.94 l -356.4,-420.61 -207.8,328.15 c -19.6,31 -43.9,54.67 -68.1,68.64 -29,16.77 -57.9,19.53 -78.5,4.2 -37.7,-28.05 -33.3,-106.11 9.9,-174.36 l 297.6,-470 c 18.9,-30.04 43.1,-54.2 68,-68.57 4.8,-2.76 9.5,-5.13 14.3,-7.1 29.8,-12.49 56.4,-8.46 72.8,11.09 l 421.8,497.71 c 31.5,37.21 18.1,118.95 -29.9,182.64 -17.5,23.28 -37.1,40.92 -56.6,52.15" /><path
         id="path192"
         style="fill:none;stroke:#263775;stroke-width:50;stroke-linecap:round;stroke-linejoin:miter;stroke-miterlimit:10;stroke-dasharray:120, 120;stroke-dashoffset:0;stroke-opacity:1"
         d="m 14531.5,6161.17 955.6,560.53" /><path
         id="path194"
         style="fill:none;stroke:#263775;stroke-width:50;stroke-linecap:round;stroke-linejoin:miter;stroke-miterlimit:10;stroke-dasharray:120, 120;stroke-dashoffset:0;stroke-opacity:1"
         d="M 9758.4,3361.19 11651,4471.45" /><g
         id="g196"><g
           clip-path="url(#clipPath202)"
           id="g198"><path
             id="path204"
             style="fill:#607abf;fill-opacity:1;fill-rule:nonzero;stroke:none"
             d="m 9758.4,2080.31 192.81,112.05 c -29.91,39.73 -64.96,87.56 -103.47,142.44 l -192.81,-112.05 c 38.5,-54.88 73.56,-102.71 103.47,-142.44" /><path
             id="path206"
             style="fill:#5d77ba;fill-opacity:1;fill-rule:nonzero;stroke:none"
             d="m 9654.93,2222.75 192.81,112.05 c -41.08,58.57 -86.09,125.16 -132.95,198.46 l -192.81,-112.05 c 46.85,-73.3 91.87,-139.89 132.95,-198.46" /><path
             id="path208"
             style="fill:#5972b5;fill-opacity:1;fill-rule:nonzero;stroke:none"
             d="m 9521.98,2421.21 192.81,112.05 c -37.08,58.03 -75.34,120.26 -113.72,186.05 l -192.81,-112.06 c 38.38,-65.79 76.63,-128.01 113.72,-186.04" /><path
             id="path210"
             style="fill:#566fb0;fill-opacity:1;fill-rule:nonzero;stroke:none"
             d="m 9408.26,2607.25 192.81,112.06 c -31.92,54.72 -63.95,111.92 -95.46,171.21 l -192.82,-112.06 c 31.52,-59.29 63.54,-116.48 95.47,-171.21" /><path
             id="path212"
             style="fill:#546caa;fill-opacity:1;fill-rule:nonzero;stroke:none"
             d="m 9312.79,2778.46 192.82,112.06 c -27.32,51.37 -54.26,104.32 -80.44,158.6 l -192.82,-112.05 c 26.19,-54.28 53.12,-107.23 80.44,-158.61" /><path
             id="path214"
             style="fill:#5168a5;fill-opacity:1;fill-rule:nonzero;stroke:none"
             d="m 9232.35,2937.07 192.82,112.05 c -23.52,48.77 -46.43,98.61 -68.44,149.36 l -192.82,-112.06 c 22.02,-50.74 44.92,-100.58 68.44,-149.35" /><path
             id="path216"
             style="fill:#4e65a0;fill-opacity:1;fill-rule:nonzero;stroke:none"
             d="m 9163.91,3086.42 192.82,112.06 c -20.53,47.3 -40.28,95.4 -59.03,144.13 l -192.81,-112.06 c 18.74,-48.72 38.49,-96.82 59.02,-144.13" /><path
             id="path218"
             style="fill:#4b619a;fill-opacity:1;fill-rule:nonzero;stroke:none"
             d="m 9104.89,3230.55 192.81,112.06 c -17.95,46.65 -34.98,93.89 -50.89,141.6 l -192.82,-112.05 c 15.91,-47.71 32.94,-94.95 50.9,-141.61" /><path
             id="path220"
             style="fill:#485e94;fill-opacity:1;fill-rule:nonzero;stroke:none"
             d="m 9053.99,3372.16 192.82,112.05 c -15.91,47.67 -30.7,95.81 -44.17,144.29 l -192.82,-112.05 c 13.48,-48.48 28.27,-96.62 44.17,-144.29" /><path
             id="path222"
             style="fill:#455a8f;fill-opacity:1;fill-rule:nonzero;stroke:none"
             d="m 9009.82,3516.45 192.82,112.05 c -8.38,30.11 -16.24,60.37 -23.55,90.72 l -192.82,-112.05 c 7.31,-30.35 15.18,-60.61 23.55,-90.72" /></g></g><g
         id="g224"><g
           clip-path="url(#clipPath230)"
           id="g226"><path
             id="path232"
             style="fill:#b7b6b5;fill-opacity:1;fill-rule:nonzero;stroke:none"
             d="m 9759.31,2400.73 192.81,112.06 c -28.65,41.75 -59.01,87.36 -90.29,136.3 L 9669,2537.04 c 31.28,-48.94 61.65,-94.55 90.31,-136.31" /><path
             id="path234"
             style="fill:#b1b1b0;fill-opacity:1;fill-rule:nonzero;stroke:none"
             d="m 9669,2537.04 192.83,112.05 c -32.91,51.5 -66.83,106.67 -100.81,164.92 L 9568.2,2701.96 c 33.98,-58.25 67.9,-113.42 100.8,-164.92" /><path
             id="path236"
             style="fill:#abaaa9;fill-opacity:1;fill-rule:nonzero;stroke:none"
             d="m 9568.2,2701.96 192.82,112.05 c -28.21,48.33 -56.46,98.79 -84.22,151.01 l -192.82,-112.05 c 27.77,-52.22 56.02,-102.68 84.22,-151.01" /><path
             id="path238"
             style="fill:#a5a5a4;fill-opacity:1;fill-rule:nonzero;stroke:none"
             d="m 9483.98,2852.97 192.82,112.05 c -23.87,44.89 -47.38,91.1 -70.18,138.38 L 9413.8,2991.35 c 22.81,-47.28 46.32,-93.49 70.18,-138.38" /><path
             id="path240"
             style="fill:#9f9f9e;fill-opacity:1;fill-rule:nonzero;stroke:none"
             d="m 9413.8,2991.35 192.82,112.05 c -20.43,42.34 -40.29,85.56 -59.33,129.47 l -192.82,-112.05 c 19.05,-43.92 38.91,-87.13 59.33,-129.47" /><path
             id="path242"
             style="fill:#9a9a9a;fill-opacity:1;fill-rule:nonzero;stroke:none"
             d="m 9354.47,3120.82 192.82,112.05 c -17.62,40.6 -34.54,81.8 -50.58,123.48 L 9303.9,3244.29 c 16.04,-41.67 32.96,-82.87 50.57,-123.47" /><path
             id="path244"
             style="fill:#959595;fill-opacity:1;fill-rule:nonzero;stroke:none"
             d="m 9303.9,3244.29 192.81,112.06 c -15.32,39.81 -29.83,80.08 -43.37,120.65 l -192.81,-112.05 c 13.53,-40.58 28.05,-80.84 43.37,-120.66" /><path
             id="path246"
             style="fill:#909190;fill-opacity:1;fill-rule:nonzero;stroke:none"
             d="M 9260.53,3364.95 9453.34,3477 c -13.45,40.33 -25.94,80.98 -37.3,121.83 l -192.81,-112.05 c 11.35,-40.86 23.85,-81.51 37.3,-121.83" /><path
             id="path248"
             style="fill:#8b8c8c;fill-opacity:1;fill-rule:nonzero;stroke:none"
             d="m 9223.23,3486.78 192.81,112.05 c -7.04,25.33 -13.65,50.75 -19.78,76.22 L 9203.44,3563 c 6.14,-25.47 12.75,-50.89 19.79,-76.22" /></g></g><g
         id="g250"><g
           clip-path="url(#clipPath256)"
           id="g252"><path
             id="path258"
             style="fill:#9f9f9e;fill-opacity:1;fill-rule:nonzero;stroke:none"
             d="m 9957.9,2484.31 192.8,112.05 c -32.8,-18.47 -65.6,-34.17 -97.5,-47.52 l -192.79,-112.05 c 31.92,13.35 64.7,29.05 97.49,47.52" /><path
             id="path260"
             style="fill:#a5a5a4;fill-opacity:1;fill-rule:nonzero;stroke:none"
             d="m 9860.41,2436.79 192.79,112.05 c -35.1,-14.68 -69.15,-26.52 -101.08,-36.05 l -192.81,-112.06 c 31.93,9.54 66,21.38 101.1,36.06" /></g></g><g
         id="g262"><g
           clip-path="url(#clipPath268)"
           id="g264"><path
             id="path270"
             style="fill:#4e65a0;fill-opacity:1;fill-rule:nonzero;stroke:none"
             d="m 10129.4,2212.72 192.9,112.07 c -3.9,-2.25 -7.7,-4.46 -11.6,-6.63 l -192.8,-112.05 c 3.8,2.17 7.7,4.38 11.5,6.61" /><path
             id="path272"
             style="fill:#5168a5;fill-opacity:1;fill-rule:nonzero;stroke:none"
             d="m 10117.9,2206.11 192.8,112.05 c -37,-20.85 -74,-38.55 -109.9,-53.59 L 10008,2152.52 c 35.9,15.03 72.9,32.73 109.9,53.59" /><path
             id="path274"
             style="fill:#546caa;fill-opacity:1;fill-rule:nonzero;stroke:none"
             d="m 10008,2152.52 192.8,112.05 c -42.3,-17.67 -83.2,-31.64 -121.2,-42.69 l -192.87,-112.05 c 38.08,11.05 78.98,25.02 121.27,42.69" /><path
             id="path276"
             style="fill:#566fb0;fill-opacity:1;fill-rule:nonzero;stroke:none"
             d="m 9886.73,2109.83 192.87,112.05 c -47,-13.62 -89.66,-22.8 -125.28,-28.98 L 9761.5,2080.85 c 35.62,6.18 78.29,15.36 125.23,28.98" /><path
             id="path278"
             style="fill:#5972b5;fill-opacity:1;fill-rule:nonzero;stroke:none"
             d="m 9761.5,2080.85 192.82,112.05 c -1.04,-0.19 -2.08,-0.36 -3.11,-0.54 L 9758.4,2080.31 c 1.02,0.18 2.06,0.35 3.1,0.54" /></g></g><g
         id="g280"><g
           clip-path="url(#clipPath286)"
           id="g282"><path
             id="path288"
             style="fill:#9a9a9a;fill-opacity:1;fill-rule:nonzero;stroke:none"
             d="m 9968.27,2490.23 192.83,112.06 c -3.5,-2.01 -6.9,-3.98 -10.4,-5.93 l -192.8,-112.05 c 3.46,1.94 6.91,3.92 10.37,5.92" /><path
             id="path290"
             style="fill:#9f9f9e;fill-opacity:1;fill-rule:nonzero;stroke:none"
             d="m 9957.9,2484.31 192.8,112.05 c -32.8,-18.47 -65.6,-34.17 -97.5,-47.52 l -192.79,-112.05 c 31.92,13.35 64.7,29.05 97.49,47.52" /></g></g><g
         id="g292"><g
           clip-path="url(#clipPath298)"
           id="g294"><path
             id="path300"
             style="fill:#455a8f;fill-opacity:1;fill-rule:nonzero;stroke:none"
             d="m 8986.27,3607.17 192.82,112.05 c -15.43,64.08 -29.36,125.49 -41.92,184.26 l -192.81,-112.05 c 12.55,-58.78 26.48,-120.18 41.91,-184.26" /><path
             id="path302"
             style="fill:#425788;fill-opacity:1;fill-rule:nonzero;stroke:none"
             d="m 8944.36,3791.43 192.81,112.05 c -37.01,173.18 -62.14,323.58 -78.88,452.59 l -192.81,-112.05 c 16.74,-129.01 41.87,-279.41 78.88,-452.59" /><path
             id="path304"
             style="fill:#415383;fill-opacity:1;fill-rule:nonzero;stroke:none"
             d="m 8865.48,4244.02 192.81,112.05 c -25.89,199.6 -31.71,348.03 -30.34,450.46 l -192.82,-112.05 c -1.37,-102.43 4.45,-250.86 30.35,-450.46" /></g></g><g
         id="g306"><g
           clip-path="url(#clipPath312)"
           id="g308"><path
             id="path314"
             style="fill:#8b8c8c;fill-opacity:1;fill-rule:nonzero;stroke:none"
             d="m 9203.44,3563 192.82,112.05 c -14.56,60.41 -27.66,118.15 -39.44,173.29 l -192.81,-112.05 c 11.78,-55.14 24.88,-112.88 39.43,-173.29" /><path
             id="path316"
             style="fill:#858686;fill-opacity:1;fill-rule:nonzero;stroke:none"
             d="m 9164.01,3736.29 192.81,112.05 c -34.66,162.22 -57.93,301.85 -73.31,420.35 l -192.82,-112.05 c 15.38,-118.51 38.65,-258.13 73.32,-420.35" /><path
             id="path318"
             style="fill:#7e8081;fill-opacity:1;fill-rule:nonzero;stroke:none"
             d="m 9090.69,4156.64 192.82,112.05 c -8.52,65.66 -14.63,124.83 -18.91,177.76 l -192.81,-112.06 c 4.28,-52.93 10.38,-112.1 18.9,-177.75" /></g></g><g
         id="g320"><g
           clip-path="url(#clipPath326)"
           id="g322"><path
             id="path328"
             style="fill:#5d77ba;fill-opacity:1;fill-rule:nonzero;stroke:none"
             d="m 9764.38,4191.76 192.82,112.05 c -8.51,0.24 -17.04,0.55 -25.61,0.92 l -192.81,-112.05 c 8.56,-0.38 17.1,-0.69 25.6,-0.92" /><path
             id="path330"
             style="fill:#607abf;fill-opacity:1;fill-rule:nonzero;stroke:none"
             d="m 9738.78,4192.68 192.81,112.05 c -64.39,2.82 -130.55,9.41 -198.43,19.77 l -192.81,-112.05 c 67.87,-10.36 134.03,-16.95 198.43,-19.77" /><path
             id="path332"
             style="fill:#637ec2;fill-opacity:1;fill-rule:nonzero;stroke:none"
             d="m 9540.35,4212.45 192.81,112.05 c -81.52,12.44 -165.5,30.33 -251.76,53.63 l -192.82,-112.05 c 86.27,-23.31 170.24,-41.19 251.77,-53.63" /><path
             id="path334"
             style="fill:#6681c7;fill-opacity:1;fill-rule:nonzero;stroke:none"
             d="m 9288.58,4266.08 192.82,112.05 c -68.52,18.51 -138.48,40.44 -209.8,65.79 -2.37,0.86 -4.64,1.67 -7,2.53 l -192.81,-112.06 c 2.36,-0.85 4.63,-1.67 6.99,-2.52 71.33,-25.35 141.29,-47.28 209.8,-65.79" /></g></g><g
         id="g336"><g
           clip-path="url(#clipPath342)"
           id="g338"><path
             id="path344"
             style="fill:#b7b6b5;fill-opacity:1;fill-rule:nonzero;stroke:none"
             d="m 9765.21,4485.9 192.82,112.05 c -40.25,-1.62 -80.54,-1.42 -120.67,0.34 l -192.81,-112.05 c 40.13,-1.76 80.42,-1.96 120.66,-0.34" /><path
             id="path346"
             style="fill:#bcbbb9;fill-opacity:1;fill-rule:nonzero;stroke:none"
             d="m 9644.55,4486.24 192.81,112.05 c -61.66,2.72 -122.94,9.11 -183.06,18.3 l -192.82,-112.05 c 60.13,-9.19 121.41,-15.58 183.07,-18.3" /><path
             id="path348"
             style="fill:#c2c0be;fill-opacity:1;fill-rule:nonzero;stroke:none"
             d="m 9461.48,4504.54 192.82,112.05 c -80.87,12.37 -159.66,29.76 -234.51,50 l -192.82,-112.06 c 74.85,-20.23 153.65,-37.63 234.51,-49.99" /><path
             id="path350"
             style="fill:#c7c6c4;fill-opacity:1;fill-rule:nonzero;stroke:none"
             d="m 9226.97,4554.53 192.82,112.06 c -121.42,32.82 -232.47,73.11 -325.23,111.45 l -192.82,-112.06 c 92.76,-38.33 203.82,-78.62 325.23,-111.45" /><path
             id="path352"
             style="fill:#ccccc9;fill-opacity:1;fill-rule:nonzero;stroke:none"
             d="m 8901.74,4665.98 192.82,112.06 c -23.41,9.67 -45.66,19.22 -66.61,28.49 l -192.81,-112.05 c 20.95,-9.27 43.19,-18.83 66.6,-28.5" /></g></g><g
         id="g354"><g
           clip-path="url(#clipPath360)"
           id="g356"><path
             id="path362"
             style="fill:#415383;fill-opacity:1;fill-rule:nonzero;stroke:none"
             d="m 9968.26,2490.23 192.84,112.06 c 139.6,81.14 278.1,213.23 351.6,428.21 82.7,242.03 120,453.57 135.5,617.11 l -192.8,-112.06 c -15.5,-163.54 -52.8,-375.08 -135.6,-617.1 -73.4,-214.98 -211.9,-347.08 -351.54,-428.22" /></g></g><g
         id="g364"><g
           clip-path="url(#clipPath370)"
           id="g366"><path
             id="path372"
             style="fill:#6a86cb;fill-opacity:1;fill-rule:nonzero;stroke:none"
             d="m 10455.4,3535.55 192.8,112.06 c -2.3,1.85 -4.6,3.67 -6.9,5.53 -150.5,120.3 -294.7,248.76 -432.1,384.61 l -192.9,-112.06 c 137.4,-135.84 281.7,-264.3 432.1,-384.6 2.4,-1.86 4.7,-3.68 7,-5.54" /><path
             id="path374"
             style="fill:#6681c7;fill-opacity:1;fill-rule:nonzero;stroke:none"
             d="m 10016.3,3925.69 192.9,112.06 c -86.8,85.8 -170.9,174.55 -252,266.06 l -192.82,-112.05 c 81.12,-91.51 165.16,-180.26 251.92,-266.07" /></g></g><path
         id="path376"
         style="fill:#8fa9dd;fill-opacity:1;fill-rule:nonzero;stroke:none"
         d="m 9764.38,4191.76 c -210.19,5.95 -439.78,52.76 -685.6,140.11 -2.36,0.85 -4.63,1.67 -6.99,2.52 14.62,-180.92 50.55,-434.77 131.65,-771.39 109.29,-453.81 369.08,-890.08 555.87,-1162.27 187.61,56.03 448.99,191.38 560.49,517.72 82.8,242.02 120.1,453.56 135.6,617.1 -2.3,1.86 -4.6,3.68 -7,5.54 -245.4,196.28 -474.48,414.29 -684.02,650.67" /><path
         id="path378"
         style="fill:#d4e0f4;fill-opacity:1;fill-rule:nonzero;stroke:none"
         d="m 9121.77,4852.62 c -11.68,3.42 -23.26,6.89 -34.68,10.44 -0.62,0.19 -1.23,0.39 -1.85,0.58 -11.32,3.53 -22.49,7.11 -33.53,10.73 -1.23,0.41 -2.49,0.81 -3.73,1.22 -10.88,3.59 -21.59,7.23 -32.19,10.9 -1.8,0.62 -3.59,1.24 -5.38,1.87 -10.32,3.59 -20.49,7.22 -30.51,10.87 -1.82,0.66 -3.62,1.33 -5.43,1.99 -10.11,3.7 -20.09,7.42 -29.87,11.15 -1.13,0.43 -2.24,0.86 -3.36,1.29 -9.92,3.8 -19.67,7.6 -29.23,11.4 -0.5,0.19 -1,0.39 -1.5,0.59 -9.67,3.84 -19.09,7.68 -28.36,11.5 -0.84,0.35 -1.72,0.69 -2.56,1.03 -0.6,0.26 -1.17,0.5 -1.78,0.76 -7.86,3.26 -15.58,6.5 -23.15,9.72 -1.58,0.68 -3.13,1.34 -4.69,2.01 -7.01,3 -13.9,5.99 -20.63,8.94 -0.83,0.36 -1.68,0.73 -2.5,1.09 -7.27,3.21 -14.35,6.36 -21.29,9.5 -1.62,0.73 -3.23,1.45 -4.83,2.18 -6.85,3.11 -13.58,6.18 -20.08,9.2 -0.36,0.17 -0.7,0.33 -1.06,0.5 -6.29,2.92 -12.37,5.78 -18.32,8.61 -1.39,0.66 -2.79,1.32 -4.16,1.98 -5.97,2.85 -11.79,5.65 -17.4,8.38 -1.02,0.49 -1.99,0.97 -2.99,1.46 -5.08,2.48 -10,4.91 -14.77,7.28 -0.9,0.45 -1.83,0.91 -2.73,1.35 -5.18,2.59 -10.16,5.1 -14.95,7.54 -1.09,0.55 -2.12,1.09 -3.18,1.62 -4.51,2.31 -8.88,4.54 -13.01,6.69 -0.29,0.15 -0.59,0.3 -0.87,0.45 -4.39,2.29 -8.49,4.44 -12.45,6.53 -0.89,0.47 -1.76,0.93 -2.62,1.39 -3.76,1.99 -7.36,3.92 -10.69,5.71 -0.48,0.26 -0.89,0.48 -1.36,0.74 -2.94,1.58 -5.68,3.07 -8.26,4.49 -0.73,0.4 -1.46,0.8 -2.17,1.18 -2.65,1.47 -5.1,2.82 -7.34,4.06 -0.65,0.37 -1.22,0.69 -1.84,1.04 -1.83,1.01 -3.5,1.96 -5.01,2.81 -0.34,0.2 -0.71,0.4 -1.04,0.59 -1.71,0.96 -3.14,1.78 -4.39,2.5 -0.53,0.3 -0.89,0.5 -1.33,0.76 -0.68,0.39 -1.22,0.7 -1.7,0.97 -0.16,0.1 -0.46,0.27 -0.6,0.35 l 192.82,112.06 c 0.58,-0.34 1.54,-0.89 2.53,-1.47 0.31,-0.17 0.64,-0.36 0.98,-0.55 1.28,-0.75 2.81,-1.61 4.59,-2.62 0.23,-0.13 0.51,-0.28 0.75,-0.42 1.59,-0.9 3.42,-1.94 5.38,-3.03 0.54,-0.29 1.04,-0.57 1.6,-0.89 2.28,-1.27 4.8,-2.66 7.5,-4.15 0.63,-0.35 1.31,-0.71 1.96,-1.07 2.63,-1.44 5.44,-2.97 8.44,-4.59 0.44,-0.24 0.85,-0.46 1.3,-0.71 3.35,-1.8 6.97,-3.74 10.75,-5.74 0.84,-0.45 1.69,-0.9 2.54,-1.34 3.94,-2.08 8.05,-4.24 12.42,-6.52 0.34,-0.17 0.72,-0.37 1.07,-0.55 4.1,-2.12 8.44,-4.36 12.91,-6.64 1.04,-0.52 2.06,-1.05 3.12,-1.59 4.78,-2.43 9.75,-4.93 14.91,-7.52 0.95,-0.47 1.93,-0.95 2.89,-1.42 4.75,-2.38 9.67,-4.79 14.72,-7.27 0.97,-0.47 1.91,-0.93 2.89,-1.41 5.64,-2.74 11.49,-5.56 17.49,-8.42 1.35,-0.65 2.73,-1.3 4.09,-1.95 5.95,-2.83 12.04,-5.69 18.33,-8.62 0.36,-0.17 0.71,-0.33 1.08,-0.5 6.48,-3.01 13.19,-6.07 20.01,-9.17 1.64,-0.74 3.29,-1.49 4.95,-2.23 6.92,-3.13 13.96,-6.27 21.2,-9.46 0.86,-0.38 1.75,-0.76 2.61,-1.14 6.71,-2.95 13.58,-5.92 20.55,-8.91 1.57,-0.67 3.12,-1.33 4.69,-2.01 7.56,-3.21 15.26,-6.45 23.12,-9.7 1.47,-0.61 2.96,-1.22 4.43,-1.83 9.25,-3.81 18.64,-7.64 28.28,-11.47 0.52,-0.21 1.08,-0.42 1.61,-0.63 9.52,-3.79 19.25,-7.58 29.14,-11.36 1.13,-0.44 2.23,-0.87 3.37,-1.3 9.77,-3.73 19.75,-7.45 29.86,-11.15 1.81,-0.66 3.62,-1.33 5.44,-1.99 10.01,-3.64 20.17,-7.27 30.47,-10.86 1.81,-0.63 3.64,-1.26 5.45,-1.88 10.59,-3.68 21.3,-7.32 32.18,-10.9 1.22,-0.41 2.46,-0.8 3.68,-1.2 11.06,-3.64 22.26,-7.23 33.6,-10.77 0.6,-0.18 1.19,-0.38 1.79,-0.56 11.42,-3.55 23.01,-7.01 34.69,-10.44 1.79,-0.52 3.57,-1.06 5.36,-1.57 11.3,-3.28 22.71,-6.48 34.23,-9.62 1.9,-0.51 3.8,-1.03 5.7,-1.55 15.04,-4.04 30.25,-7.96 45.63,-11.73 1.47,-0.36 2.94,-0.73 4.41,-1.09 16.33,-3.96 32.82,-7.76 49.5,-11.36 0.39,-0.07 0.78,-0.17 1.17,-0.25 17.02,-3.66 34.21,-7.1 51.54,-10.32 1.14,-0.21 2.29,-0.41 3.43,-0.62 16.33,-3 32.8,-5.79 49.38,-8.35 2.14,-0.33 4.28,-0.65 6.43,-0.97 12.07,-1.82 24.18,-3.55 36.36,-5.1 1.09,-0.15 2.19,-0.27 3.29,-0.4 11.65,-1.48 23.36,-2.8 35.09,-4.03 2,-0.2 3.97,-0.42 5.96,-0.62 12.07,-1.2 24.18,-2.26 36.33,-3.17 2.47,-0.19 4.95,-0.37 7.42,-0.54 12.33,-0.87 24.68,-1.63 37.07,-2.19 1.77,-0.08 3.56,-0.13 5.32,-0.19 8.7,-0.37 17.42,-0.64 26.15,-0.83 3.01,-0.07 6.03,-0.13 9.05,-0.18 8.89,-0.14 17.8,-0.2 26.72,-0.16 1.67,0.01 3.34,-0.01 5.02,0 10.41,0.09 20.84,0.32 31.27,0.66 2.7,0.09 5.42,0.21 8.12,0.32 8.17,0.31 16.32,0.71 24.48,1.2 2.73,0.16 5.44,0.3 8.17,0.49 12.21,0.8 24.43,1.8 36.64,2.98 2.34,0.22 4.68,0.48 7.02,0.72 12.7,1.31 25.38,2.76 38.05,4.51 l -192.82,-112.05 c -12.67,-1.75 -25.36,-3.2 -38.05,-4.51 -2.35,-0.24 -4.68,-0.5 -7.01,-0.72 -12.21,-1.19 -24.43,-2.18 -36.64,-2.98 -0.92,-0.07 -1.84,-0.17 -2.76,-0.23 -1.81,-0.11 -3.6,-0.16 -5.41,-0.26 -8.16,-0.49 -16.33,-0.89 -24.49,-1.2 -2.71,-0.11 -5.41,-0.23 -8.12,-0.32 -10.44,-0.34 -20.86,-0.57 -31.28,-0.66 -1.67,-0.01 -3.34,0.01 -5.01,0 -8.91,-0.04 -17.82,0.02 -26.71,0.16 -3.03,0.05 -6.04,0.11 -9.06,0.18 -8.73,0.19 -17.44,0.46 -26.14,0.83 -1.4,0.05 -2.8,0.06 -4.2,0.12 -0.38,0.02 -0.76,0.06 -1.13,0.07 -12.38,0.56 -24.73,1.31 -37.06,2.19 -2.48,0.17 -4.95,0.35 -7.43,0.54 -12.15,0.91 -24.26,1.96 -36.33,3.17 -1.98,0.19 -3.97,0.42 -5.95,0.62 -11.74,1.22 -23.45,2.55 -35.1,4.03 -1.1,0.13 -2.19,0.25 -3.29,0.39 -12.18,1.56 -24.29,3.29 -36.36,5.11 -1.29,0.19 -2.6,0.35 -3.89,0.54 -0.85,0.13 -1.68,0.3 -2.54,0.43 -16.58,2.56 -33.05,5.35 -49.39,8.35 -1.13,0.21 -2.27,0.4 -3.4,0.62 -17.34,3.22 -34.54,6.66 -51.56,10.32 -0.39,0.08 -0.76,0.17 -1.15,0.25 -16.68,3.6 -33.18,7.4 -49.52,11.36 -1.47,0.36 -2.92,0.72 -4.39,1.08 -15.4,3.77 -30.62,7.7 -45.66,11.75 -0.82,0.22 -1.67,0.42 -2.49,0.65 -1.07,0.28 -2.11,0.59 -3.17,0.89 -11.53,3.13 -22.95,6.33 -34.25,9.61 -1.8,0.52 -3.58,1.05 -5.36,1.58" /><g
         id="g380"><g
           clip-path="url(#clipPath386)"
           id="g382"><path
             id="path388"
             style="fill:#7e8081;fill-opacity:1;fill-rule:nonzero;stroke:none"
             d="m 10129.4,2212.72 192.9,112.06 c 160.6,93.34 320.9,246.86 407.2,499.34 134.8,394.96 159.1,717.49 157.5,908.87 l -192.8,-112.05 c 1.6,-191.38 -22.7,-513.91 -157.6,-908.88 -86.2,-252.47 -246.6,-406 -407.2,-499.34" /></g></g><path
         id="path390"
         style="fill:#ffffff;fill-opacity:1;fill-rule:nonzero;stroke:none"
         d="m 9203.44,3563 c 109.29,-453.81 369.08,-890.08 555.87,-1162.27 187.61,56.03 448.99,191.38 560.49,517.72 82.8,242.03 120.1,453.57 135.6,617.1 -2.3,1.86 -4.6,3.68 -7,5.54 -245.4,196.28 -474.47,414.29 -684.02,650.67 -210.19,5.95 -439.77,52.76 -685.6,140.11 -2.36,0.85 -4.63,1.67 -6.99,2.52 14.62,-180.92 50.55,-434.77 131.65,-771.39 m 561.77,922.9 c 353.49,-423.09 711.29,-709.9 928.99,-864.96 1.6,-191.38 -22.7,-513.91 -157.6,-908.88 -161.2,-471.91 -581.2,-598.13 -778.2,-631.76 -196.27,260.68 -614.08,870.6 -772.13,1526.87 -131.24,544.99 -153.69,896.19 -151.13,1087.31 217.98,-96.5 575.84,-222.8 930.07,-208.58" /><g
         id="g392"><g
           clip-path="url(#clipPath398)"
           id="g394"><path
             id="path400"
             style="fill:#ccccc9;fill-opacity:1;fill-rule:nonzero;stroke:none"
             d="m 10694.2,3620.94 192.8,112.05 c -149.4,106.39 -364.7,274.83 -599.4,506.77 l -192.8,-112.05 c 234.6,-231.94 450,-400.38 599.4,-506.77" /><path
             id="path402"
             style="fill:#c7c6c4;fill-opacity:1;fill-rule:nonzero;stroke:none"
             d="m 10094.8,4127.71 192.8,112.05 c -86.6,85.64 -175.9,179.94 -265.5,282.96 l -192.78,-112.05 c 89.55,-103.02 178.78,-197.32 265.48,-282.96" /><path
             id="path404"
             style="fill:#c2c0be;fill-opacity:1;fill-rule:nonzero;stroke:none"
             d="m 9829.32,4410.67 192.78,112.05 c -21.3,24.58 -42.71,49.65 -64.07,75.23 L 9765.21,4485.9 c 21.36,-25.58 42.74,-50.65 64.11,-75.23" /></g></g><path
         id="path406"
         style="fill:#263775;fill-opacity:1;fill-rule:nonzero;stroke:none"
         d="m 10753.3,2505.73 c 7.2,21 14,41.76 20.7,62.36 2.1,6.65 4.1,13.2 6.2,19.8 4.4,13.96 8.7,27.85 12.8,41.62 2.3,7.55 4.5,15.05 6.6,22.54 3.8,12.79 7.5,25.52 11,38.14 2.1,7.52 4.2,15.02 6.2,22.47 3.5,12.82 6.9,25.51 10.2,38.16 1.7,6.78 3.5,13.59 5.2,20.32 3.8,14.97 7.4,29.77 10.9,44.47 1,4.1 2.1,8.28 3,12.35 4.4,18.68 8.5,37.14 12.5,55.36 1,4.91 2,9.71 3,14.58 2.8,13.34 5.5,26.61 8.1,39.7 1.3,6.43 2.5,12.77 3.7,19.15 2.2,11.41 4.3,22.76 6.3,33.97 1.2,6.61 2.3,13.17 3.4,19.7 1.9,10.97 3.7,21.82 5.4,32.59 1,6.21 2.1,12.45 3,18.6 1.8,11.65 3.5,23.13 5.1,34.53 0.7,4.87 1.4,9.83 2.1,14.65 2.2,16.08 4.3,31.93 6.1,47.5 0.3,1.95 0.5,3.84 0.7,5.79 1.6,13.61 3.1,27.03 4.5,40.23 0.5,5.12 0.9,10.12 1.4,15.18 1,9.93 1.9,19.79 2.8,29.47 0.5,5.49 0.9,10.92 1.3,16.33 0.8,9.13 1.5,18.16 2.1,27.06 0.4,5.27 0.7,10.54 1.1,15.73 0.6,9.12 1.1,18.06 1.6,26.92 0.2,4.56 0.5,9.18 0.7,13.67 0.5,11.06 1,21.88 1.4,32.52 0.1,1.99 0.2,4.08 0.2,6.06 0.4,12.59 0.7,24.86 1,36.85 0,3.57 0.1,6.96 0.1,10.46 0.1,8.4 0.2,16.72 0.2,24.81 0.1,4.17 0,8.24 0,12.34 0,7.17 0,14.25 -0.1,21.16 0,4.14 -0.1,8.24 -0.2,12.29 -0.1,6.74 -0.2,13.34 -0.4,19.83 -0.1,3.68 -0.2,7.41 -0.3,11.02 -0.2,7.18 -0.5,14.14 -0.8,20.98 -0.1,2.54 -0.2,5.2 -0.3,7.7 -0.4,9.22 -0.9,18.13 -1.4,26.7 -0.1,1.73 -0.2,3.31 -0.3,5.01 -0.4,6.78 -0.8,13.41 -1.3,19.76 -0.2,2.82 -0.4,5.49 -0.6,8.21 -0.4,5 -0.8,9.93 -1.2,14.63 -0.3,2.8 -0.5,5.52 -0.7,8.22 -0.5,4.39 -0.9,8.67 -1.3,12.79 -0.2,2.45 -0.4,4.92 -0.7,7.28 -0.4,4.19 -0.9,8.18 -1.3,12.06 -0.2,1.88 -0.4,3.87 -0.7,5.69 -0.5,5.04 -1.1,9.8 -1.7,14.25 -0.1,0.4 -0.1,0.87 -0.2,1.27 -0.6,4.64 -1.1,8.85 -1.7,12.82 -0.1,0.84 -0.2,1.69 -0.4,2.5 -0.5,3.71 -1,7.17 -1.5,10.22 -0.1,0.47 -0.1,0.87 -0.2,1.32 -0.4,2.76 -0.8,5.26 -1.2,7.43 0,0.38 -0.1,0.81 -0.2,1.18 -0.4,2.2 -0.7,4.08 -1,5.62 0,0.46 -0.1,0.88 -0.2,1.28 -0.2,1.18 -0.4,2.32 -0.5,2.96 l 192.8,112.05 c 0.1,-0.65 0.3,-1.74 0.5,-3.01 0.1,-0.41 0.2,-0.72 0.3,-1.2 0.2,-1.56 0.6,-3.41 0.9,-5.65 0.1,-0.38 0.2,-0.79 0.2,-1.19 0.4,-2.12 0.8,-4.54 1.2,-7.21 0.1,-0.56 0.2,-1.04 0.2,-1.61 0.5,-3.02 1,-6.38 1.5,-10.02 0.2,-0.9 0.3,-1.81 0.4,-2.75 0.6,-3.91 1.2,-8.04 1.8,-12.62 0,-0.02 0,-0.05 0,-0.07 0,-0.4 0.1,-0.87 0.1,-1.27 0.6,-4.46 1.2,-9.2 1.8,-14.25 0.2,-1.82 0.4,-3.79 0.6,-5.69 0.4,-3.89 0.9,-7.86 1.3,-12.06 0.3,-2.37 0.5,-4.81 0.8,-7.28 0.4,-4.13 0.8,-8.38 1.2,-12.79 0.2,-2.71 0.5,-5.42 0.7,-8.23 0.4,-4.66 0.8,-9.52 1.2,-14.46 0.2,-2.81 0.4,-5.54 0.6,-8.45 0.5,-6.18 0.9,-12.63 1.3,-19.23 0.1,-1.87 0.3,-3.62 0.4,-5.52 0.5,-8.55 0.9,-17.44 1.3,-26.64 0.2,-2.51 0.2,-5.18 0.4,-7.75 0.2,-6.82 0.5,-13.76 0.7,-20.92 0.1,-3.62 0.2,-7.34 0.3,-11.03 0.2,-6.49 0.3,-13.08 0.5,-19.83 0,-4.06 0.1,-8.16 0.1,-12.31 0.1,-6.87 0.1,-13.89 0.2,-21.02 0,-4.17 0,-8.29 0,-12.54 -0.1,-7.98 -0.2,-16.18 -0.3,-24.46 0,-3.61 0,-7.11 -0.1,-10.79 -0.2,-11.96 -0.5,-24.18 -1,-36.73 0,-2.11 -0.1,-4.33 -0.2,-6.46 -0.4,-10.54 -0.8,-21.24 -1.4,-32.18 -0.2,-4.49 -0.5,-9.11 -0.7,-13.67 -0.5,-8.86 -1,-17.79 -1.6,-26.9 -0.3,-5.23 -0.7,-10.51 -1.1,-15.82 -0.6,-8.84 -1.3,-17.8 -2,-26.86 -0.5,-5.49 -0.9,-10.98 -1.4,-16.54 -0.8,-9.63 -1.8,-19.43 -2.7,-29.29 -0.5,-5.1 -1,-10.13 -1.5,-15.28 -1.4,-13.21 -2.9,-26.62 -4.5,-40.23 -0.2,-1.95 -0.4,-3.83 -0.7,-5.79 -1.8,-15.56 -3.9,-31.42 -6.1,-47.5 -0.6,-4.81 -1.4,-9.74 -2.1,-14.6 -1.6,-11.44 -3.3,-22.95 -5.1,-34.64 -0.9,-6.1 -1.9,-12.28 -2.9,-18.45 -1.8,-10.79 -3.6,-21.66 -5.5,-32.66 -1.1,-6.56 -2.2,-13.14 -3.4,-19.78 -2,-11.15 -4.1,-22.42 -6.3,-33.77 -1.2,-6.44 -2.4,-12.85 -3.7,-19.35 -2.6,-13.11 -5.3,-26.39 -8.1,-39.75 -1,-4.82 -2,-9.56 -3,-14.42 -4,-18.24 -8.1,-36.71 -12.5,-55.41 -0.9,-4.07 -2,-8.25 -3,-12.35 -3.5,-14.7 -7.1,-29.5 -10.9,-44.48 -1.7,-6.71 -3.5,-13.5 -5.2,-20.27 -3.3,-12.66 -6.7,-25.36 -10.2,-38.19 -2,-7.48 -4.1,-14.99 -6.2,-22.53 -3.5,-12.58 -7.2,-25.24 -10.9,-37.98 -2.2,-7.56 -4.4,-15.1 -6.7,-22.71 -4.1,-13.73 -8.4,-27.59 -12.8,-41.52 -2.1,-6.62 -4.1,-13.17 -6.2,-19.83 -6.6,-20.61 -13.5,-41.37 -20.6,-62.37 -101.6,-297.28 -282.3,-473.57 -462.3,-578.14 l -192.8,-112.05 c 180,104.56 360.6,280.86 462.2,578.14" /><path
         id="path408"
         style="fill:#8fa9dd;fill-opacity:1;fill-rule:nonzero;stroke:none"
         d="m 8986.27,3607.17 c 158.05,-656.26 575.86,-1266.19 772.13,-1526.86 197,33.62 617,159.84 778.2,631.75 134.9,394.97 159.2,717.49 157.6,908.88 -217.7,155.06 -575.5,441.86 -928.99,864.96 -354.23,-14.22 -712.09,112.08 -930.08,208.58 -2.55,-191.11 19.9,-542.32 151.14,-1087.31 m 779.8,1181.49 c 537.73,-696.52 1107.43,-1025.46 1137.43,-1042.77 4.8,-25.95 96.2,-518.95 -150.2,-1240.16 -246.4,-721.16 -958.3,-730.32 -995.77,-730.8 -37.34,43.67 -746.94,873.53 -988.51,1876.46 -241.49,1002.86 -147.56,1388.85 -142.62,1409.17 29.99,-17.32 599.82,-346.3 1139.67,-271.9" /><path
         id="path410"
         style="fill:#8fa9dd;fill-opacity:1;fill-rule:nonzero;stroke:none"
         d="m 9895.17,4628.88 c -12.1,14.32 -24.21,28.86 -36.32,43.55 -2.57,3.12 -5.14,6.24 -7.71,9.38 -12.18,14.86 -24.36,29.86 -36.54,45.09 -1.42,1.77 -2.82,3.57 -4.23,5.34 -11.46,14.38 -22.92,28.95 -34.36,43.67 -1.38,1.78 -2.77,3.48 -4.14,5.27 -1.94,2.48 -3.86,4.98 -5.8,7.48 l 192.82,112.05 c 3.28,-4.25 6.57,-8.42 9.85,-12.64 11.5,-14.8 23.02,-29.45 34.56,-43.91 1.3,-1.71 2.7,-3.45 4.1,-5.16 12.2,-15.25 24.4,-30.27 36.6,-45.15 2.5,-3.13 5.1,-6.25 7.7,-9.37 12.1,-14.69 24.2,-29.23 36.3,-43.55 1.7,-2.04 3.4,-4.05 5.1,-6.08 11.5,-13.46 22.9,-26.76 34.3,-39.91 1.9,-2.22 3.8,-4.46 5.7,-6.67 9.5,-10.83 18.9,-21.56 28.3,-32.17 1.2,-1.4 2.5,-2.79 3.7,-4.2 8.3,-9.24 16.5,-18.41 24.7,-27.5 3,-3.38 6.1,-6.73 9.2,-10.1 6.4,-7.12 12.9,-14.2 19.3,-21.21 3.4,-3.63 6.7,-7.23 10,-10.83 6.3,-6.84 12.7,-13.63 19,-20.37 3.1,-3.37 6.3,-6.77 9.5,-10.12 7.5,-7.97 15,-15.86 22.5,-23.68 1.8,-1.9 3.6,-3.82 5.4,-5.71 9.3,-9.67 18.5,-19.23 27.7,-28.69 2.5,-2.5 4.9,-4.96 7.3,-7.44 6.9,-6.96 13.6,-13.88 20.4,-20.71 3.2,-3.23 6.4,-6.41 9.6,-9.6 6.1,-6.14 12.2,-12.23 18.3,-18.26 3,-2.99 6,-5.98 9.1,-8.95 10.5,-10.39 21,-20.67 31.4,-30.77 1,-0.96 2,-1.89 3,-2.83 9.6,-9.29 19.2,-18.43 28.7,-27.46 2.6,-2.51 5.3,-5.01 7.9,-7.5 10.3,-9.75 20.6,-19.4 30.8,-28.85 0.4,-0.41 0.9,-0.81 1.3,-1.23 9.9,-9.14 19.6,-18.1 29.4,-26.97 2.5,-2.29 5,-4.58 7.5,-6.85 10.1,-9.1 20,-18.12 29.9,-26.92 0.1,-0.01 0.1,-0.03 0.1,-0.05 10,-8.88 19.8,-17.55 29.6,-26.14 2.5,-2.12 4.9,-4.22 7.3,-6.33 9.2,-8.06 18.4,-16.03 27.5,-23.82 0.5,-0.42 1,-0.85 1.5,-1.27 9.5,-8.18 19,-16.16 28.3,-24.05 2.4,-2 4.8,-3.97 7.1,-5.94 8.5,-7.13 17,-14.16 25.3,-21.05 0.8,-0.68 1.7,-1.37 2.5,-2.06 9.1,-7.53 18.1,-14.88 27.1,-22.12 2.1,-1.73 4.2,-3.44 6.3,-5.16 7.9,-6.35 15.7,-12.59 23.4,-18.71 1.1,-0.91 2.3,-1.84 3.4,-2.75 8.6,-6.84 17.1,-13.51 25.5,-20.07 2,-1.54 3.9,-3.04 5.9,-4.57 7.2,-5.66 14.4,-11.23 21.5,-16.68 1.3,-0.98 2.6,-1.99 3.9,-2.96 8,-6.16 15.9,-12.14 23.7,-18.01 1.9,-1.45 3.7,-2.85 5.6,-4.28 6.6,-4.95 13.1,-9.81 19.5,-14.57 1.4,-1.02 2.8,-2.05 4.2,-3.06 7.4,-5.52 14.8,-10.91 22,-16.16 1.6,-1.19 3.2,-2.36 4.8,-3.54 6.1,-4.43 12.1,-8.75 18,-12.96 1.3,-0.96 2.7,-1.94 4,-2.88 6.8,-4.9 13.5,-9.65 20.1,-14.26 1.4,-1.04 2.9,-2.03 4.3,-3.04 5.5,-3.87 10.9,-7.65 16.2,-11.31 1.3,-0.9 2.6,-1.8 3.9,-2.68 6.2,-4.29 12.2,-8.44 18.1,-12.44 1.1,-0.8 2.2,-1.55 3.4,-2.33 4.9,-3.35 9.7,-6.61 14.4,-9.77 1.3,-0.85 2.6,-1.72 3.8,-2.56 5.4,-3.61 10.7,-7.08 15.7,-10.42 1.1,-0.7 2.1,-1.35 3.1,-2.03 4.3,-2.83 8.4,-5.56 12.5,-8.19 1.1,-0.7 2.1,-1.41 3.2,-2.1 4.7,-3.02 9.2,-5.94 13.5,-8.71 0.7,-0.44 1.3,-0.86 2,-1.3 3.8,-2.39 7.4,-4.67 10.8,-6.86 1,-0.59 1.9,-1.19 2.8,-1.77 3.9,-2.42 7.6,-4.75 11,-6.89 0.4,-0.24 0.8,-0.44 1.1,-0.67 3.2,-1.97 6.2,-3.81 9,-5.55 0.7,-0.43 1.4,-0.87 2.1,-1.29 3,-1.82 5.8,-3.54 8.4,-5.08 0.2,-0.16 0.5,-0.29 0.7,-0.44 2.4,-1.46 4.6,-2.79 6.7,-4.01 0.4,-0.25 0.8,-0.5 1.2,-0.75 4.2,-2.48 7.5,-4.4 9.9,-5.79 0.3,-0.2 0.7,-0.42 1,-0.59 0.9,-0.55 1.8,-1.06 2.4,-1.39 l -192.8,-112.05 c -0.6,0.33 -1.4,0.82 -2.4,1.39 -0.3,0.19 -0.7,0.37 -1,0.59 -2.4,1.39 -5.7,3.31 -9.9,5.79 -0.4,0.26 -0.8,0.5 -1.2,0.75 -2.1,1.22 -4.3,2.54 -6.7,4.01 -0.3,0.15 -0.5,0.28 -0.7,0.44 -2.6,1.54 -5.4,3.26 -8.4,5.07 -0.7,0.43 -1.4,0.86 -2.1,1.29 -2.8,1.75 -5.8,3.59 -9,5.56 -0.4,0.23 -0.7,0.43 -1.1,0.67 -3.4,2.15 -7.1,4.47 -11,6.89 -0.9,0.58 -1.8,1.17 -2.8,1.77 -3.4,2.18 -7,4.47 -10.8,6.86 -0.7,0.44 -1.3,0.85 -2,1.3 -4.3,2.75 -8.8,5.65 -13.4,8.66 -1.2,0.73 -2.3,1.48 -3.5,2.23 -4,2.6 -8.1,5.29 -12.3,8.09 -1,0.69 -2.1,1.34 -3.1,2.05 -5.1,3.33 -10.3,6.81 -15.7,10.42 -1.2,0.84 -2.5,1.71 -3.8,2.56 -4.7,3.16 -9.5,6.41 -14.4,9.77 -1.2,0.78 -2.3,1.53 -3.4,2.32 -5.9,4.01 -12,8.16 -18.1,12.45 -1.3,0.88 -2.6,1.79 -3.9,2.69 -5.3,3.63 -10.6,7.37 -16.1,11.2 -1.5,1.07 -3,2.1 -4.5,3.19 -6.5,4.6 -13.2,9.33 -20,14.21 -1.3,0.93 -2.7,1.92 -4,2.87 -5.9,4.22 -11.9,8.54 -18,12.96 -1.6,1.19 -3.2,2.35 -4.9,3.55 -7.1,5.23 -14.4,10.6 -21.9,16.11 -1.4,1.06 -2.9,2.15 -4.3,3.22 -6.4,4.71 -12.8,9.53 -19.4,14.45 -1.9,1.43 -3.7,2.84 -5.7,4.29 -7.7,5.86 -15.6,11.82 -23.6,17.96 -1.3,1.03 -2.7,2.1 -4.1,3.14 -7,5.38 -14.1,10.87 -21.2,16.46 -2.1,1.58 -4.1,3.13 -6.1,4.72 -8.3,6.53 -16.8,13.16 -25.3,19.96 -1.3,0.97 -2.5,1.98 -3.7,2.94 -7.6,6.05 -15.3,12.22 -23.1,18.48 -2.1,1.77 -4.3,3.52 -6.5,5.31 -8.9,7.21 -17.9,14.52 -27,22.01 -0.9,0.75 -1.8,1.54 -2.7,2.29 -8.3,6.79 -16.6,13.74 -25,20.78 -2.4,2.03 -4.8,4.05 -7.3,6.09 -9.3,7.85 -18.7,15.8 -28.2,23.94 -0.5,0.5 -1.1,1.01 -1.7,1.51 -9,7.71 -18.1,15.58 -27.2,23.55 -2.5,2.15 -5,4.3 -7.5,6.48 -9.7,8.56 -19.6,17.21 -29.5,26.07 0,0.02 -0.1,0.03 -0.1,0.04 -9.8,8.79 -19.8,17.78 -29.8,26.86 -2.6,2.32 -5.2,4.66 -7.7,7 -9.6,8.77 -19.3,17.64 -29.1,26.68 -0.5,0.5 -1.1,0.99 -1.6,1.49 -10.1,9.41 -20.4,19.01 -30.6,28.72 -2.7,2.54 -5.4,5.09 -8.1,7.65 -9.5,8.96 -18.9,18 -28.4,27.2 -1.1,1.03 -2.2,2.03 -3.2,3.07 -10.4,10.06 -20.9,20.3 -31.4,30.65 -1.2,1.19 -2.4,2.35 -3.6,3.54 -1.9,1.84 -3.8,3.74 -5.6,5.58 -6,5.97 -12.1,11.98 -18.1,18.04 -3.2,3.25 -6.5,6.5 -9.8,9.79 -6.6,6.74 -13.3,13.56 -20.1,20.41 -2.5,2.58 -5,5.13 -7.5,7.73 -9.2,9.43 -18.5,18.97 -27.7,28.63 -1.8,1.89 -3.7,3.81 -5.5,5.71 -7.4,7.82 -14.9,15.71 -22.4,23.68 -3.2,3.36 -6.4,6.76 -9.6,10.15 -6.2,6.7 -12.5,13.45 -18.8,20.26 -3.4,3.65 -6.8,7.31 -10.2,11 -6.3,6.93 -12.7,13.92 -19.1,20.96 -3.1,3.44 -6.3,6.87 -9.41,10.33 -8.16,9.04 -16.34,18.18 -24.54,27.39 -1.26,1.42 -2.52,2.82 -3.79,4.24 -9.4,10.61 -18.81,21.34 -28.24,32.17 -0.69,0.79 -1.38,1.57 -2.08,2.36 -1.23,1.42 -2.46,2.89 -3.69,4.31 -11.4,13.15 -22.8,26.45 -34.23,39.91 -1.72,2.03 -3.44,4.04 -5.15,6.08" /><path
         id="path412"
         style="fill:none;stroke:#263775;stroke-width:50;stroke-linecap:round;stroke-linejoin:round;stroke-miterlimit:10;stroke-dasharray:none;stroke-opacity:1"
         d="M 11245.8,7664.69 14310.3,5887.8" /><path
         id="path414"
         style="fill:none;stroke:#263775;stroke-width:50;stroke-linecap:round;stroke-linejoin:round;stroke-miterlimit:10;stroke-dasharray:none;stroke-opacity:1"
         d="m 10214.2,8262.87 425.2,-246.59" /><path
         id="path416"
         style="fill:none;stroke:#263775;stroke-width:50;stroke-linecap:round;stroke-linejoin:round;stroke-miterlimit:10;stroke-dasharray:none;stroke-opacity:1"
         d="M 10121.5,5319.11 V 4783.78" /><path
         id="path418"
         style="fill:none;stroke:#263775;stroke-width:50;stroke-linecap:round;stroke-linejoin:round;stroke-miterlimit:10;stroke-dasharray:none;stroke-opacity:1"
         d="M 10121.5,7419.79 V 5853.76" /><path
         id="path420"
         style="fill:none;stroke:#263775;stroke-width:50;stroke-linecap:round;stroke-linejoin:round;stroke-miterlimit:10;stroke-dasharray:none;stroke-opacity:1"
         d="m 11196.3,3563 2600.9,-1501.63 7.7,2461.43" /><path
         id="path422"
         style="fill:none;stroke:#263775;stroke-width:50;stroke-linecap:round;stroke-linejoin:round;stroke-miterlimit:10;stroke-dasharray:none;stroke-opacity:1"
         d="M 13981.1,2784.85 V 2342.26" /><path
         id="path424"
         style="fill:none;stroke:#263775;stroke-width:50;stroke-linecap:round;stroke-linejoin:round;stroke-miterlimit:10;stroke-dasharray:none;stroke-opacity:1"
         d="M 13981.1,4886.17 V 3209.01" /><path
         id="path426"
         style="fill:none;stroke:#263775;stroke-width:50;stroke-linecap:round;stroke-linejoin:round;stroke-miterlimit:10;stroke-dasharray:none;stroke-opacity:1"
         d="M 13418.4,9041.48 V 7292.57" /><path
         id="path428"
         style="fill:none;stroke:#263775;stroke-width:50;stroke-linecap:round;stroke-linejoin:round;stroke-miterlimit:10;stroke-dasharray:none;stroke-opacity:1"
         d="M 13418.4,9787.62 V 9383.66" /><path
         id="path430"
         style="fill:none;stroke:#263775;stroke-width:50;stroke-linecap:round;stroke-linejoin:round;stroke-miterlimit:10;stroke-dasharray:none;stroke-opacity:1"
         d="M 11617.1,6046.92 13804.9,4783.78" /><g
         transform="scale(1.09183)"
         id="g432"><path
           id="path434"
           style="fill:none;stroke:#263775;stroke-width:45.79470062;stroke-linecap:round;stroke-linejoin:round;stroke-miterlimit:10;stroke-dasharray:none;stroke-opacity:1"
           d="m 12290.1,9058.73 c 0,0 -6,171.68 163.4,93.1 L 16300,6931.07" /></g><g
         transform="scale(1.11714)"
         id="g436"><path
           id="path438"
           style="fill:none;stroke:#263775;stroke-width:44.75730133;stroke-linecap:round;stroke-linejoin:round;stroke-miterlimit:10;stroke-dasharray:none;stroke-opacity:1"
           d="M 13454.6,8618.15 16300,6975.4" /></g><path
         id="path440"
         style="fill:none;stroke:#263775;stroke-width:50;stroke-linecap:round;stroke-linejoin:round;stroke-miterlimit:10;stroke-dasharray:none;stroke-opacity:1"
         d="m 14092.1,10169.5 458.8,-264.89" /><g
         transform="scale(1.03185)"
         id="g442"><path
           id="path444"
           style="fill:none;stroke:#263775;stroke-width:48.45679855;stroke-linecap:round;stroke-linejoin:round;stroke-miterlimit:10;stroke-dasharray:none;stroke-opacity:1"
           d="M 15606.6,4785.42 16300,4385.11" /></g><path
         id="path446"
         style="fill:none;stroke:#263775;stroke-width:50;stroke-linecap:round;stroke-linejoin:round;stroke-miterlimit:10;stroke-dasharray:none;stroke-opacity:1"
         d="m 15266.4,2838.54 7.7,2722.41" /><path
         id="path448"
         style="fill:none;stroke:#263775;stroke-width:50;stroke-linecap:round;stroke-linejoin:round;stroke-miterlimit:10;stroke-dasharray:none;stroke-opacity:1"
         d="m 8626.4,5060.56 c 0,0 -205.88,-1747.03 1131.13,-3285.63" /><path
         id="path450"
         style="fill:none;stroke:#263775;stroke-width:50;stroke-linecap:round;stroke-linejoin:round;stroke-miterlimit:10;stroke-dasharray:none;stroke-opacity:1"
         d="m 9922.9,1792.87 c 0,0 186.3,7.88 481,210.63" /><g
         transform="scale(1.04752)"
         id="g452"><path
           id="path454"
           style="fill:#263775;fill-opacity:1;fill-rule:nonzero;stroke:none"
           d="m 15487.3,1584.42 c 0,-110.48 182,-200.03 406.3,-200.03 224.4,0 406.4,89.55 406.4,200.03 0,110.48 -182,200.04 -406.4,200.04 -224.3,0 -406.3,-89.56 -406.3,-200.04" /></g><g
         transform="scale(1.05128)"
         id="g456"><path
           id="path458"
           style="fill:#8fa9dd;fill-opacity:1;fill-rule:nonzero;stroke:none"
           d="m 15361,2387.2 1.8,-43.94 15.7,-383.63 c 0,-85.14 75.3,-145.4 120.2,-173.75 87.5,-55.21 205.4,-85.66 331.8,-85.66 126.3,0 244.2,30.45 331.7,85.66 44.9,28.35 120.3,88.61 120.3,173.75 l 9.2,226.09 8.3,201.48 h -939" /></g><g
         transform="scale(1.05128)"
         id="g460"><path
           id="path462"
           style="fill:#263775;fill-opacity:1;fill-rule:nonzero;stroke:none"
           d="m 15361,2387.2 1.8,-43.94 c 0,0 320,-369.14 928.9,-157.54 l 8.3,201.48 h -939" /></g><g
         transform="scale(1.05648)"
         id="g464"><path
           id="path466"
           style="fill:#d4e0f4;fill-opacity:1;fill-rule:nonzero;stroke:none"
           d="m 15205.1,2676.27 c 0,-20.58 2.8,-40.76 8.2,-60.34 45.2,-162 269.5,-285.09 539.2,-285.09 269.8,0 493.9,123.09 539.2,285.09 5.5,19.58 8.3,39.76 8.3,60.34 0,190.79 -245.1,345.46 -547.5,345.46 -302.4,0 -547.4,-154.67 -547.4,-345.46" /></g><g
         transform="scale(1.05648)"
         id="g468"><path
           id="path470"
           style="fill:#8fa9dd;fill-opacity:1;fill-rule:nonzero;stroke:none"
           d="M 15205.1,2676.27 V 2555.6 c 0,-190.8 245,-345.46 547.4,-345.46 302.4,0 547.5,154.66 547.5,345.46 v 120.67 c 0,-20.58 -2.8,-40.76 -8.3,-60.34 -45.3,-162 -269.4,-285.09 -539.2,-285.09 -269.7,0 -494,123.09 -539.2,285.09 -5.4,19.58 -8.2,39.76 -8.2,60.34" /></g><g
         transform="scale(1.05173)"
         id="g472"><path
           id="path474"
           style="fill:#263775;fill-opacity:1;fill-rule:nonzero;stroke:none"
           d="m 15823.7,2415.06 c 133.2,0 257.3,32.05 349.6,90.26 47.3,29.87 126.7,93.36 126.7,183.06 0,89.71 -79.4,153.2 -126.7,183.05 -92.3,58.22 -216.4,90.27 -349.6,90.27 -133.2,0 -257.3,-32.05 -349.6,-90.27 -47.3,-29.85 -126.7,-93.34 -126.7,-183.05 0,-89.7 79.4,-153.19 126.7,-183.06 92.3,-58.21 216.4,-90.26 349.6,-90.26" /></g><g
         transform="scale(1.09905)"
         id="g476"><path
           id="path478"
           style="fill:#d4e0f4;fill-opacity:1;fill-rule:nonzero;stroke:none"
           d="m 15396.3,2564.29 c 36,10.43 74.1,9.3 111,14.67 37,5.37 75.8,19.37 96.4,50.62 39.6,60.47 -8.7,148.5 26.9,211.47 21.7,38.21 68.7,55.02 112.6,57.02 43.8,2 87.5,-7.59 131.3,-7.7 44,-0.11 91.6,11.64 118.4,46.35 35.7,45.94 22.2,111.42 9.2,168.06 -13.1,56.64 -20.8,124.78 21.2,164.93 34.5,33.02 88.2,32.38 133,48.92 52.1,19.21 92.7,63.13 115.3,113.78 22.6,50.66 28.4,107.57 24.7,162.9 -9.1,134.73 -77.4,267.03 -189.4,342.38 -112.1,75.38 -267.3,87.02 -383.7,18.57 -116.4,-68.44 -182.1,-218.34 -142.7,-347.49 14.1,-46.37 40.3,-96.12 20.1,-140.22 -13.6,-29.68 -45.1,-47.07 -76.4,-56.35 -31.3,-9.27 -64.3,-12.51 -94.6,-24.42 -58.2,-22.78 -102.1,-78.58 -110.4,-140.46 -8.4,-61.89 19,-127.37 69,-164.81 20,-15.05 43.3,-25.81 61.8,-42.84 18.5,-17.03 31.7,-43.45 23.3,-67.15 -9.5,-27.09 -42,-38.39 -70.6,-39.6 -28.8,-1.21 -58.4,3.89 -85.5,-5.62 -34.3,-12 -57.3,-45.67 -66.2,-80.81 -9,-35.16 -6.2,-72.09 -3.4,-108.25 5.5,-69.25 11,-138.5 16.4,-207.76 1.2,-15.29 2.6,-31.06 9.7,-44.68 6.9,-13.4 25,-28.49 41.3,-22.02 21.5,8.58 8.5,18.99 13.1,33.77 11,35.6 28.4,55.18 68.2,66.74" /></g><g
         transform="scale(1.07414)"
         id="g480"><path
           id="path482"
           style="fill:#8fa9dd;fill-opacity:1;fill-rule:nonzero;stroke:none"
           d="m 15666.9,2599.95 c 13.1,86.04 45.9,168.94 94.8,240.96 24.1,35.59 52,68.7 83.2,98.21 31.5,29.66 67.3,53.33 100.6,80.71 33.4,27.54 59.8,59.37 70.2,102.19 10,41.08 8.1,83.87 11.4,125.76 3.2,40.4 11.3,81.28 36.4,114.16 24.6,32.13 60.4,52.11 94.1,73.18 39.2,24.59 73.3,53.38 90.5,97.7 16.6,42.49 17.3,89.75 0.4,132.23 -5.2,13 15.8,18.66 21,5.78 30.5,-76.96 6.8,-170.61 -56.9,-223.51 -31.2,-25.85 -68.2,-43.06 -100.2,-67.59 -16,-12.28 -30.4,-26.8 -40.6,-44.36 -10.3,-17.79 -16,-37.67 -19.4,-57.83 -7.1,-41.6 -4.6,-84.19 -9.6,-126.02 -5.1,-42.66 -18.6,-81.34 -47.1,-114.03 -29,-33.05 -66.7,-56.45 -100.8,-83.64 -33.6,-26.89 -64,-57.66 -90.7,-91.4 -61.2,-77.4 -101.5,-170.8 -116.3,-268.3 -2.1,-13.78 -23,-7.92 -21,5.8" /></g><g
         transform="scale(1.01996)"
         id="g484"><path
           id="path486"
           style="fill:#d4e0f4;fill-opacity:1;fill-rule:nonzero;stroke:none"
           d="m 16133.7,2763.14 c -38.7,11.23 -79.8,10.02 -119.6,15.8 -39.9,5.79 -81.7,20.88 -103.8,54.55 -42.8,65.16 9.3,160.02 -29,227.86 -23.4,41.18 -74.1,59.29 -121.3,61.45 -47.3,2.16 -94.3,-8.18 -141.6,-8.3 -47.4,-0.11 -98.6,12.54 -127.6,49.95 -38.4,49.5 -23.9,120.06 -9.8,181.08 14.1,61.04 22.5,134.46 -22.8,177.73 -37.3,35.58 -95.1,34.89 -143.4,52.71 -56.1,20.7 -99.9,68.03 -124.3,122.61 -24.3,54.59 -30.4,115.9 -26.4,175.53 9.7,145.18 83.2,287.73 203.9,368.93 120.8,81.22 288.1,93.76 413.5,20.01 125.4,-73.75 196.3,-235.27 153.8,-374.44 -15.2,-49.97 -43.4,-103.58 -21.7,-151.09 14.6,-31.98 48.5,-50.73 82.3,-60.72 33.7,-9.99 69.3,-13.49 102,-26.31 62.7,-24.55 109.9,-84.68 119,-151.36 9,-66.69 -20.5,-137.24 -74.4,-177.59 -21.6,-16.22 -46.7,-27.81 -66.6,-46.16 -19.8,-18.35 -34,-46.82 -25.1,-72.35 10.2,-29.2 45.2,-41.38 76.1,-42.68 30.9,-1.31 62.9,4.19 92.1,-6.05 36.9,-12.93 61.7,-49.22 71.3,-87.08 9.7,-37.89 6.7,-77.68 3.6,-116.64 -5.9,-74.62 -11.7,-149.24 -17.6,-223.88 -1.3,-16.47 -2.8,-33.46 -10.4,-48.14 -7.5,-14.44 -27,-30.7 -44.4,-23.72 -23.3,9.24 -9.3,20.46 -14.2,36.38 -11.9,38.36 -30.6,59.45 -73.6,71.92" /></g><g
         transform="scale(1.01539)"
         id="g488"><path
           id="path490"
           style="fill:#8fa9dd;fill-opacity:1;fill-rule:nonzero;stroke:none"
           d="m 16297.7,2750.39 c -13.8,91.02 -48.5,178.72 -100.2,254.91 -25.5,37.64 -55,72.67 -88.1,103.89 -33.2,31.38 -71.2,56.41 -106.3,85.38 -35.4,29.14 -63.3,62.8 -74.3,108.11 -10.6,43.46 -8.6,88.72 -12.1,133.03 -3.4,42.74 -11.8,85.98 -38.5,120.77 -26,33.99 -63.8,55.12 -99.5,77.42 -41.5,26.01 -77.6,56.46 -95.8,103.34 -17.5,44.96 -18.2,94.94 -0.4,139.89 5.5,13.75 -16.7,19.73 -22.2,6.11 -32.3,-81.42 -7.1,-180.48 60.2,-236.44 33,-27.35 72.1,-45.55 106,-71.5 16.9,-12.99 32.2,-28.36 42.9,-46.93 11,-18.82 17,-39.85 20.6,-61.18 7.5,-44.01 4.8,-89.06 10.2,-133.31 5.4,-45.12 19.5,-86.04 49.9,-120.63 30.5,-34.96 70.4,-59.71 106.4,-88.48 35.6,-28.44 67.8,-60.99 96.1,-96.69 64.7,-81.87 107.3,-180.68 123,-283.82 2.1,-14.58 24.4,-8.38 22.1,6.13" /></g><g
         transform="scale(1.05423)"
         id="g492"><path
           id="path494"
           style="fill:#8fa9dd;fill-opacity:1;fill-rule:nonzero;stroke:none"
           d="m 15883,2736.56 c 27.8,36.29 72.1,54.88 112.7,75.84 40.6,20.95 82.3,49.45 95.1,93.32 17.1,58.74 -23.8,117.42 -64.2,163.44 -40.3,46.02 -85.4,98.88 -78.3,159.66 5.8,48.41 44.3,86.67 85.9,112.1 41.6,25.42 88.3,42.3 127.5,71.21 110.1,81.06 131.6,258.48 44,363.47 -32.3,38.8 -75.5,66.92 -111.5,102.36 -36,35.43 -66,83.21 -60.1,133.37 9.7,82.28 102.7,121.88 162.6,178.99 76.7,72.95 103.3,185.49 101.6,291.36 -2.8,179.93 -80.2,359.19 -214.9,478.42 -134.8,119.23 -326.3,174.18 -502.2,136.36 -176,-37.81 -330.4,-170.45 -386.7,-341.37 -56.4,-170.93 -8.3,-373.72 124.2,-495.49 43.5,-39.95 94.5,-71.12 137.1,-112.05 42.5,-40.93 77.2,-95.83 74.2,-154.79 -6.7,-132.79 -191.2,-207.95 -188,-340.87 1.8,-79.98 72.2,-139.34 137.7,-185.24 65.5,-45.91 138.6,-98.99 150.1,-178.14 11.5,-77.88 -41,-148.59 -83.3,-215.02 -42.2,-66.43 -75.6,-155.97 -29.8,-219.98 30.3,-42.38 85,-57.56 131.4,-81.2 46.4,-23.64 92,-71.46 76.9,-121.35 -4.8,-15.9 -15.4,-29.91 -17.8,-46.33 -6.3,-42.07 47.3,-72.55 88.3,-61.27 32.8,9.02 83.8,45.82 83.2,81.81 -0.4,17.5 -16.4,34.19 -15.8,54.82 0.6,20.05 7.9,40.63 20.1,56.57" /></g><g
         transform="scale(1.02554)"
         id="g496"><path
           id="path498"
           style="fill:#d4e0f4;fill-opacity:1;fill-rule:nonzero;stroke:none"
           d="m 16176.8,4631.9 c -9.7,10.9 6.4,27.07 16.1,16.11 69.7,-77.92 89.3,-185.94 83.5,-287.5 -6.9,-123.79 -50,-241.8 -64.3,-364.53 -14.8,-128.15 0.6,-257.22 21.8,-383.74 20.6,-122.49 46.3,-244.3 56.5,-368.28 9.6,-117.19 5.5,-237.71 -30.9,-350.37 -4.5,-13.99 -9.5,-27.78 -15,-41.41 -5.4,-13.45 -27.5,-7.58 -22,6.05 43.7,108.86 53.9,226.65 48,342.93 -6.2,121.04 -29.7,240 -50.7,359.1 -21.9,124.82 -41.5,251.49 -35.2,378.62 6.4,125.12 46.8,243.96 63.7,367.42 13.7,99.34 8.6,209.52 -48.2,295.63 -7.1,10.58 -14.9,20.51 -23.3,29.97" /></g><path
         id="path500"
         style="fill:none;stroke:#263775;stroke-width:50;stroke-linecap:round;stroke-linejoin:round;stroke-miterlimit:10;stroke-dasharray:none;stroke-opacity:1"
         d="m 16155.8,2334.98 10.7,-260.25" /><g
         transform="scale(1.04857)"
         id="g502"><path
           id="path504"
           style="fill:none;stroke:#263775;stroke-width:47.68399811;stroke-linecap:round;stroke-linejoin:round;stroke-miterlimit:10;stroke-dasharray:none;stroke-opacity:1"
           d="m 16300,1882.41 c 0,0 -109.2,-199.42 -480.2,-176.06" /></g><g
         transform="scale(1.09894)"
         id="g506"><path
           id="path508"
           style="fill:none;stroke:#263775;stroke-width:45.49819946;stroke-linecap:round;stroke-linejoin:round;stroke-miterlimit:10;stroke-dasharray:none;stroke-opacity:1"
           d="m 16293,3497.76 c 5.9,32.1 7,65.27 4.8,97.89 -9.1,134.75 -77.3,267.05 -189.3,342.42 -112.2,75.38 -267.4,87.02 -383.8,18.57 -107.5,-63.23 -171.9,-195.98 -149.9,-317.68" /></g><g
         transform="scale(1.09316)"
         id="g510"><path
           id="path512"
           style="fill:none;stroke:#263775;stroke-width:45.73899841;stroke-linecap:round;stroke-linejoin:round;stroke-miterlimit:10;stroke-dasharray:none;stroke-opacity:1"
           d="m 15346.3,2544.11 c 1.1,-15.37 2.5,-31.22 9.6,-44.91 7,-13.48 25.2,-28.66 41.6,-22.14 21.7,8.62 8.6,19.09 13.2,33.95 11,35.79 28.5,55.47 68.6,67.1 36.1,10.48 74.4,9.34 111.6,14.74 37.2,5.41 76.2,19.48 96.8,50.9 39.9,60.8 -8.7,149.3 27.1,212.6 21.8,38.42 69.1,55.32 113.2,57.33 44.1,2.02 88,-7.63 132.1,-7.74 44.2,-0.11 92,11.7 119,46.6 35.8,46.19 22.3,112.03 9.2,168.96 -13.2,56.96 -20.9,125.46 21.3,165.82 34.7,33.2 88.7,32.56 133.8,49.19 20.7,7.68 39.8,19.31 56.6,33.71" /></g><g
         transform="scale(1.0516)"
         id="g514"><path
           id="path516"
           style="fill:none;stroke:#263775;stroke-width:47.54679871;stroke-linecap:round;stroke-linejoin:round;stroke-miterlimit:10;stroke-dasharray:none;stroke-opacity:1"
           d="m 15623.3,3140.65 c -12.3,-20.23 -25.5,-40.03 -37.8,-59.45 -42.3,-66.6 -75.8,-156.36 -29.9,-220.53 30.4,-42.48 85.2,-57.71 131.7,-81.41 46.6,-23.7 92.3,-71.64 77.1,-121.65 -4.7,-15.94 -15.4,-29.98 -17.8,-46.44 -6.3,-42.18 47.4,-72.74 88.5,-61.43 32.9,9.04 84,45.94 83.4,82.01 -0.4,17.55 -16.4,34.29 -15.8,54.96 0.6,20.1 7.9,40.74 20.2,56.71 27.8,36.39 72.2,55.03 112.9,76.03 40.7,21.01 82.6,49.58 95.3,93.56 17.2,58.89 -23.8,117.71 -64.3,163.85 -40.4,46.13 -85.6,99.13 -78.5,160.06 5.8,48.53 44.4,86.89 86.1,112.38 41.7,25.49 88.6,42.4 127.8,71.39 59.2,43.52 92.9,114.77 97.8,187.73" /></g><g
         transform="scale(1.05423)"
         id="g518"><path
           id="path520"
           style="fill:none;stroke:#263775;stroke-width:47.42779922;stroke-linecap:round;stroke-linejoin:round;stroke-miterlimit:10;stroke-dasharray:none;stroke-opacity:1"
           d="m 16147.4,4149.83 c 17.2,13.03 34.3,26.21 49.3,40.49 76.7,72.95 103.3,185.49 101.6,291.36 -2.8,179.93 -80.2,359.19 -214.9,478.42 -134.8,119.23 -326.3,174.18 -502.2,136.36 -176,-37.81 -330.4,-170.45 -386.7,-341.37 -56.4,-170.93 -8.3,-373.72 124.2,-495.49 43.5,-39.95 94.5,-71.12 137.1,-112.05 42.5,-40.93 77.2,-95.83 74.2,-154.79 -0.8,-14.58 -3.6,-28.46 -8.2,-41.81" /></g><path
         id="path522"
         style="fill:none;stroke:#263775;stroke-width:50;stroke-linecap:round;stroke-linejoin:round;stroke-miterlimit:10;stroke-dasharray:none;stroke-opacity:1"
         d="m 15955.7,4394.92 c 49.4,-6.01 97.5,-21.38 140.7,-46.79 39.4,-23.13 73.5,-54.72 100.5,-91.52" /><g
         transform="scale(1.01504)"
         id="g524"><path
           id="path526"
           style="fill:none;stroke:#263775;stroke-width:49.25899887;stroke-linecap:round;stroke-linejoin:round;stroke-miterlimit:10;stroke-dasharray:none;stroke-opacity:1"
           d="m 16300,2667.69 c -23.3,9.29 -9.4,20.56 -14.3,36.56 -11.9,38.55 -30.7,59.74 -73.9,72.26 -38.9,11.3 -80.2,10.07 -120.2,15.88 -40.1,5.83 -82,20.98 -104.3,54.82 -43,65.47 9.4,160.79 -29.2,228.96 -23.4,41.38 -74.3,59.58 -121.8,61.75 -47.5,2.16 -94.8,-8.22 -142.3,-8.34 -47.6,-0.12 -99.1,12.6 -128.2,50.19 -38.6,49.74 -24,120.64 -9.8,181.96 14.1,61.34 22.6,135.11 -23,178.58 -37.4,35.75 -95.5,35.07 -144.1,52.98 -56.3,20.79 -100.4,68.35 -124.8,123.19 -24.4,54.86 -30.7,116.47 -26.6,176.38 9.7,145.89 83.6,289.13 204.9,370.72 15.2,10.18 31,19.28 47.4,27.26" /></g><path
         id="path528"
         style="fill:#263775;fill-opacity:1;fill-rule:nonzero;stroke:none"
         d="m 9416.01,3722.69 c -19.23,11.09 -36.55,17.55 -51.99,19.4 -15.42,1.83 -27.37,-1.19 -35.83,-9 -8.46,-7.86 -12.73,-20.07 -12.77,-36.69 -0.1,-33.37 16.74,-69.33 50.51,-107.95 10.35,-11.91 23.72,-25.74 40.09,-41.51 16.33,-15.74 27.77,-28.46 34.26,-38.14 6.49,-9.65 9.74,-19.77 9.71,-30.36 -0.02,-9.34 -3.09,-14.84 -9.11,-16.49 -6.06,-1.67 -14.29,0.5 -24.66,6.49 -16.26,9.38 -28.01,20.01 -35.19,31.76 -7.21,11.8 -10.81,25.74 -10.77,41.79 l -63.06,36.42 c -0.05,-19.78 4.23,-39.74 12.84,-59.92 8.61,-20.14 21.49,-39.55 38.61,-58.19 17.12,-18.58 36.23,-33.99 57.41,-46.22 29.96,-17.29 53.6,-23.46 70.85,-18.44 17.23,5.08 25.9,20.68 25.98,46.9 0.09,32.8 -13.94,66.68 -42.1,101.64 -11.54,14.38 -26.35,30.12 -44.37,47.18 -18.02,17.09 -30.61,30.83 -37.77,41.19 -7.15,10.4 -10.7,19.41 -10.67,27.12 0.02,8.77 3.28,14.15 9.8,16.08 6.53,1.94 15.42,-0.31 26.65,-6.79 11.1,-6.41 19.91,-14.88 26.4,-25.36 6.49,-10.51 9.73,-21.85 9.7,-34.07 l 62.73,-36.22 c 0.05,18.26 -4.03,36.89 -12.22,55.83 -8.22,18.97 -19.75,36.61 -34.59,52.86 -14.87,16.31 -31.68,29.85 -50.44,40.69" /><path
         id="path530"
         style="fill:#263775;fill-opacity:1;fill-rule:nonzero;stroke:none"
         d="m 9680.36,3565.95 -59.13,34.14 -96.58,-244.6 67.23,-38.81 15.22,47.33 86.18,-49.76 15.07,-64.82 67.59,-39.02 -95.58,355.54 m -58.07,-154.82 28.27,87.85 27.82,-120.23 -56.09,32.38" /><path
         id="path532"
         style="fill:#263775;fill-opacity:1;fill-rule:nonzero;stroke:none"
         d="m 9970.33,3398.54 -174.55,100.78 -0.85,-299.88 62.9,-36.31 0.33,119.46 101.45,-58.58 0.17,55.61 -101.46,58.57 0.21,69.01 111.65,-64.47 0.15,55.81" /><path
         id="path534"
         style="fill:#263775;fill-opacity:1;fill-rule:nonzero;stroke:none"
         d="m 10176.6,3279.43 -180.11,104 -0.85,-299.87 179.76,-103.78 0.2,55.6 -116.9,67.48 0.2,71.66 98.9,-57.12 0.2,53.57 -98.9,57.12 0.1,63.23 117.3,-67.69 0.1,55.8" /><path
         id="path536"
         style="fill:#8fa9dd;fill-opacity:1;fill-rule:nonzero;stroke:none"
         d="m 12511,1135.04 239.9,-184.989 c 26.3,-21.211 27.8,-59.242 5.9,-84.922 -68.6,-80.129 -263.1,36.562 -280.6,73.023 0,0 -56.8,-21.043 -134.5,31.047 0,0 -22.5,25.633 -5.9,128.211 l 175.2,37.63" /><path
         id="path538"
         style="fill:#d4e0f4;fill-opacity:1;fill-rule:nonzero;stroke:none"
         d="m 12214.9,1828.72 3.7,-12.85 c -17.1,-287.55 94.8,-709.41 94.8,-709.41 138.7,-63.89 207.3,40.52 207.3,40.52 0,0 -44.6,140.24 -62.3,589.13 -17.9,448.89 -133.9,855.94 -133.9,855.94 l -26.4,-6.03 -283.5,-64.55 200.3,-692.75" /><path
         id="path540"
         style="fill:#8fa9dd;fill-opacity:1;fill-rule:nonzero;stroke:none"
         d="m 12183.2,2109.44 c -14.6,111.37 -20.2,227.86 19.9,332.67 20.9,54.18 53.5,103.63 95,143.91 l -283.5,-64.55 200.3,-692.75 c -1.3,93.79 -19.4,187.32 -31.7,280.72" /><path
         id="path542"
         style="fill:#8fa9dd;fill-opacity:1;fill-rule:nonzero;stroke:none"
         d="m 11801.2,1093.79 c 0,0 32.2,-259.278 -23.9,-291.618 -56.1,-32.371 -151.3,17.527 -161.4,67.398 -10.1,49.879 0.1,197.75 26.2,243.83 26.1,46.06 159.1,-19.61 159.1,-19.61" /><path
         id="path544"
         style="fill:#d4e0f4;fill-opacity:1;fill-rule:nonzero;stroke:none"
         d="m 12169.5,2516.64 c 0,0 -339.2,-1011.17 -350.9,-1416.4 0,0 -102.6,-49.87 -202.1,31.18 0,0 -10.4,478.24 57.4,688.87 0,0 68.5,413.26 46.2,580.69 -22.3,167.42 56.9,224.55 56.9,224.55 l 392.5,-108.89" /><path
         id="path546"
         style="fill:#263775;fill-opacity:1;fill-rule:nonzero;stroke:none"
         d="m 12159.2,3588.79 c 0,0 102.1,-31.47 150.3,-146.82 48.2,-115.35 15.8,-794.4 33.6,-839.05 0,0 -143.5,-203.16 -568.9,0 0,0 45.3,299.19 -51.5,479.02 -96.7,179.85 -63.1,444.19 222.1,516.66 l 214.4,-9.81" /><path
         id="path548"
         style="fill:#d4e0f4;fill-opacity:1;fill-rule:nonzero;stroke:none"
         d="m 12107.3,3525.5 v -38.63 c 0,-11.72 -10.3,-20.84 -21.9,-19.23 -40,5.52 -122.2,23.72 -140.6,80.7 v 63.12 l 162.5,-85.96" /><path
         id="path550"
         style="fill:#8fa9dd;fill-opacity:1;fill-rule:nonzero;stroke:none"
         d="m 12107.3,3572.03 v -46.53 c 0,0 -122.4,21.84 -162.5,85.96 v 40.62 l 162.5,-80.05" /><path
         id="path552"
         style="fill:#263775;fill-opacity:1;fill-rule:nonzero;stroke:none"
         d="m 11977.5,3652.08 c -76.8,11.52 -143.7,72.49 -162.4,147.82 -9.5,38.6 -7.2,79.31 0.4,118.32 7.6,38.98 20.7,77.34 42.7,110.4 22,33.06 53.4,60.61 90.9,73.67 42.9,14.93 91.3,9.9 132.4,-9.34 41.1,-19.25 70.7,-51.21 95.7,-89.03 29.8,10.7 66.7,-6.48 77.6,-36.18 7.5,-20.21 3.7,-42.79 -2.3,-63.49 -13,-45.23 -36.2,-87.47 -67.5,-122.66 -55,-62.01 -135.2,-88.93 -207.5,-129.51" /><path
         id="path554"
         style="fill:#ffffff;fill-opacity:1;fill-rule:nonzero;stroke:none"
         d="m 12559.9,3280.26 c 32.4,-16.34 91.7,-39.75 124.1,-56.1 8.5,12.01 11,32.82 19.6,44.82 19.4,-4.53 68,-1.96 88.3,25.01 16.3,21.72 20.9,49.36 22.3,76.49 0.8,17.61 1.4,36.31 -7.3,51.62 -11.3,19.89 -35.4,28.63 -57.9,32.54 -22.6,3.9 -55,2.19 -75.4,12.68 1.8,19.77 -0.2,43.76 -0.7,63.61 -0.5,22.11 -7.1,44.04 -18.8,62.83 -5.4,8.68 -13.2,17.44 -23.4,17.7 -10.4,0.26 -19.1,-8.79 -22.1,-18.72 -3,-9.91 -1.7,-20.54 -0.7,-30.85 7.6,-76.03 -2.6,-153.77 -29.6,-225.27 -6.5,-17.4 -10.8,-39.37 -18.4,-56.36" /><path
         id="path556"
         style="fill:#d4e0f4;fill-opacity:1;fill-rule:nonzero;stroke:none"
         d="m 12190.3,3881.48 c 0,0 42.1,-334.3 -93.5,-322.61 -135.6,11.69 -161.3,106.14 -161.3,106.14 0,0 -95.9,80.34 -39.8,87.63 h 42.1 c 0,0 -35.1,100.79 4.7,105.47 39.7,4.67 141.8,-101.54 247.8,23.37" /><path
         id="path558"
         style="fill:#263775;fill-opacity:1;fill-rule:nonzero;stroke:none"
         d="m 12335.5,3188.67 41.8,-133.05 187,248.19 c 0,0 112.3,-16.51 155.9,-87.63 0,0 -241.2,-366.85 -384.7,-413.6 0,0 -32.4,310.47 0,386.09" /><path
         id="path560"
         style="fill:#263775;fill-opacity:1;fill-rule:nonzero;stroke:none"
         d="m 11748.8,3484.4 c 0,0 -304.3,-336.11 -332.3,-536.44 -28.1,-200.32 241.2,-471.51 257.4,-471.51 16.1,0 144.7,86.5 144.7,86.5 0,0 -226.8,332.85 -210.4,385.01 16.3,52.16 137.9,141 137.9,141 0,0 59.1,339.69 2.7,395.44" /><path
         id="path562"
         style="fill:#ffffff;fill-opacity:1;fill-rule:nonzero;stroke:none"
         d="m 11806.5,2554.91 c 0,0 61.9,-16.12 84.5,-37.94 l 26.5,-40.52 -127.8,-137.93 c 0,0 -105.6,70.61 -105.8,141.28 l 122.6,75.11" /><path
         id="path564"
         style="fill:#d4e0f4;fill-opacity:1;fill-rule:nonzero;stroke:none"
         d="m 12657.2,3364.98 c 0.7,13.47 2.5,26.9 4.4,40.24 1.5,10.97 3.7,22.06 9.1,31.87 9.4,17.15 29.7,27.58 48.3,18.92 7.7,-3.56 1,-14.87 -6.6,-11.32 -15.4,7.18 -27.5,-7.39 -33,-20.77 42.8,-3.67 84.9,-12.44 125.5,-26.5 8,-2.74 4.6,-15.42 -3.4,-12.64 -40.2,13.92 -82,22.83 -124.4,26.27 -0.5,0.04 -0.8,0.25 -1.3,0.37 -2.6,-11.8 -4.1,-24.19 -5,-36.42 41.9,-1.21 83.5,-8.2 123.3,-21.13 8,-2.6 4.6,-15.27 -3.5,-12.65 -39,12.65 -79.4,19.56 -120.4,20.69 0,-1.08 -0.1,-2.19 -0.1,-3.28 -0.2,-12.5 1.2,-25.2 5.1,-37.11 38.6,-2.69 77,-8.01 114.9,-16.02 8.3,-1.75 4.8,-14.4 -3.4,-12.65 -34.9,7.36 -70.1,12.32 -105.6,15.06 0.7,-1.22 1.1,-2.55 1.9,-3.74 10.2,-15.83 27.7,-25.76 46.6,-23.63 8.4,0.93 8.4,-12.19 0,-13.12 -22.5,-2.53 -43.8,9.69 -56.4,27.9 -14,20.14 -17.2,45.74 -16,69.66" /><path
         id="path566"
         style="fill:#8fa9dd;fill-opacity:1;fill-rule:nonzero;stroke:none"
         d="m 12127.6,3783.16 c 18,-40.67 21.6,-86.42 9.3,-129.26 -2.3,-8.11 -15,-4.66 -12.7,3.48 11.3,39.24 8.6,81.79 -7.9,119.16 -3.4,7.65 7.9,14.33 11.3,6.62" /><path
         id="path568"
         style="fill:#8fa9dd;fill-opacity:1;fill-rule:nonzero;stroke:none"
         d="m 11777.3,2333.6 c 49.8,46.92 96.7,96.81 140.5,149.41 5.4,6.49 14.6,-2.82 9.2,-9.28 -43.7,-52.6 -90.6,-102.49 -140.4,-149.39 -6.2,-5.8 -15.5,3.46 -9.3,9.26" /></g></g></svg>